<svg id="Layer_1" enable-background="new 0 0 512 512" height="512" viewBox="0 0 512 512" width="512" xmlns="http://www.w3.org/2000/svg"><g><path d="m85.118 190.138h61.765v84.009h-61.765z" fill="#ffc6a1"/><path d="m116 190.138h30.882v84.009h-30.882z" fill="#fdaa8e"/><path d="m138.801 290.077h-75.301v-34.858c0-1.302 1.056-2.358 2.358-2.358h53.278c10.86 0 19.665 8.804 19.665 19.665z" fill="#e4e4e4"/><path d="m138.801 290.077h34.183v-34.858c0-1.302-1.056-2.358-2.358-2.358h-12.16c-10.86 0-19.665 8.804-19.665 19.665z" fill="#e4e4e4"/><path d="m194.353 512h-144.353c-2.209 0-4-1.791-4-4v-43.615h152.353v43.615c0 2.209-1.791 4-4 4z" fill="#4380a0"/><path d="m167.471 464.385v47.615h26.882c2.209 0 4-1.791 4-4v-43.615z" fill="#3b7191"/><path d="m198.353 481.095h-152.353v-180.852c0-9.1 7.377-16.477 16.477-16.477h113.221c12.512 0 22.656 10.143 22.656 22.656v174.673z" fill="#80deea"/><path d="m167.471 283.766v197.329h30.882v-174.665c0-12.517-10.139-22.664-22.647-22.664z" fill="#4dd0e1"/><path d="m76.924 136.906 12.449-55.081c8.786-38.872 47.426-63.258 86.296-54.459l8.74 1.978c38.852 8.794 63.224 47.413 54.442 86.268l-12.449 55.078c-9.31 41.19-50.254 67.029-91.441 57.707l-.349-.079c-41.168-9.319-66.993-50.24-57.688-91.412z" fill="#ffc6a1"/><path d="m184.328 29.326-8.623-1.952c-3.655-.827-7.307-1.361-10.933-1.619 32.623 12.816 51.918 47.821 43.966 83.003l-12.476 55.2c-8.144 36.035-40.562 60.293-76.173 59.498 4.608 2.074 9.49 3.722 14.61 4.881l.225.051c41.212 9.328 82.16-16.465 91.46-57.612l12.476-55.2c8.776-38.831-15.638-77.447-54.532-86.25z" fill="#fdaa8e"/><path d="m206.911 130.805c-4.044-.916-8.056 1.621-8.969 5.662l-1.537 6.8c-.913 4.04 1.622 8.056 5.662 8.969.557.126 1.113.187 1.661.187 3.427 0 6.521-2.365 7.309-5.849l1.537-6.8c.911-4.041-1.623-8.056-5.663-8.969z" fill="#be652b"/><path d="m80.725 118.79c-8.554-21.327-7.491-39.9-7.705-42.259-1.961-21.568 11.018-86.66 58.84-75.186 139.304 6.508 147.436 61.931 135.202 82.276-14.829 24.661-41.632 16.328-120.086-8.224-7.271-2.275-13.114 71.385-17.376 76.88s-16.944 3.708-16.944 3.708-.711-23.743-5.759-36.555c-4.362-11.069-23.069 7.097-26.172-.64z" fill="#d67b42"/><g fill="#be652b"><path d="m144.635 77.199c-8.434-2.576-25.586-6.738-31.614 3.11-2.452 4.006-4.451 14.152-7.805 36.659.678.575 1.25 1.373 1.679 2.462 5.048 12.812 5.759 36.555 5.759 36.555s12.683 1.787 16.944-3.708c3.796-4.893 8.844-63.818 15.037-75.078z"/><path d="m179.975 6.221c63.873 19.035 66.423 55.061 57.075 70.607-7.837 13.034-19.023 16.849-39.408 13.927 40.693 11.295 58.378 11.228 69.419-7.133 10.635-17.688 5.86-61.878-87.086-77.401z"/></g><g><path d="m107.424 134.943c-3.365 14.89-16.86 24.524-30.141 21.518s-17.863-18.615-14.498-33.505 13.404-23.423 26.685-20.417 21.319 17.513 17.954 32.404z" fill="#fdaa8e"/></g><path d="m253.134 189.194c44.412 4.501 202.293 40.382 212.866 322.806h-99.284s14.727-250.777-118.432-302.453c-4.042-1.569-6.696-5.484-6.696-9.834 0-6.244 5.359-11.146 11.546-10.519z" fill="#b1e75a"/><path d="m253.134 189.194c-3.584-.363-6.882 1.136-9.03 3.67 60.252 13.906 181.782 72.543 191.014 319.136h30.882c-10.573-282.424-168.454-318.305-212.866-322.806z" fill="#9ed643"/><g fill="#ffc808"><path d="m304.901 62.47c1.108 0 2.234-.247 3.296-.768l29.487-14.458c3.719-1.824 5.256-6.317 3.432-10.036-1.823-3.72-6.317-5.254-10.036-3.433l-29.487 14.458c-3.719 1.824-5.256 6.317-3.432 10.036 1.303 2.658 3.968 4.201 6.74 4.201z"/><path d="m337.684 137.549-29.487-14.458c-3.718-1.821-8.212-.287-10.036 3.433-1.824 3.719-.287 8.212 3.432 10.036l29.487 14.458c1.063.521 2.188.768 3.296.768 2.771 0 5.437-1.544 6.739-4.2 1.825-3.72.288-8.213-3.431-10.037z"/><path d="m346.629 84.896h-30.407c-4.142 0-7.5 3.357-7.5 7.5s3.358 7.5 7.5 7.5h30.407c4.142 0 7.5-3.357 7.5-7.5s-3.358-7.5-7.5-7.5z"/></g><path d="m123.559 512h-41.177v-207.646c0-11.371 9.218-20.588 20.588-20.588 11.371 0 20.588 9.218 20.588 20.588v207.646z" fill="#ffc6a1"/><path d="m123.559 335.275h-41.177v-30.921c0-11.371 9.218-20.588 20.588-20.588 11.371 0 20.588 9.218 20.588 20.588v30.921z" fill="#f75632"/><path d="m163.18 425.229v-.015c0-11.375 9.221-20.596 20.596-20.596h31.719c11.375 0 20.596 9.221 20.596 20.596v.015c0 11.375-9.221 20.596-20.596 20.596h-31.719c-11.375 0-20.596-9.221-20.596-20.596z" fill="#ffc6a1"/></g></svg>