<svg id="Capa_1" enable-background="new 0 0 494.912 494.912" height="512" viewBox="0 0 494.912 494.912" width="512" xmlns="http://www.w3.org/2000/svg"><g><path d="m274.391 366.185 68.718 39.081c21.928 12.471 35.472 35.755 35.472 60.982v15.192c0 7.441-6.032 13.473-13.473 13.473h-237.343c-7.441 0-13.473-6.032-13.473-13.473v-15.192c0-25.226 13.544-48.511 35.472-60.982l68.718-39.081 14.484-5.958h31.03z" fill="#a7eedc"/><path d="m254.041 360.227h-21.074l-14.484 5.958-68.718 39.081c-21.928 12.471-35.472 35.755-35.472 60.981v15.192c0 7.441 6.032 13.472 13.473 13.472h30.488c0-.007-.001-.015-.001-.022v-15.192c0-25.226 13.544-48.51 35.472-60.981l60.317-34.304v-24.185z" fill="#86e8d0"/><g id="XMLID_428_"><path d="m359.246 50.45-1.25-4.26c-8.06-27.39-33.19-46.19-61.729-46.19h-96.66c-28.54 0-53.67 18.8-61.73 46.19l-1.25 4.26c-13.97 8.98-22.33 24.42-22.33 40.9 0 .98.03 1.97.09 2.96l6.499 106.692 13.251 22.528 12.82 11.92 193.425 7.408 35.708-25.59 5.398-122.958c1.068-17.57-7.442-34.34-22.242-43.86z" fill="#cdbfba"/></g><g><path d="m364.554 242.772h-31.416v-51.009h31.416c9.379 0 16.983 7.604 16.983 16.983v17.043c0 9.379-7.603 16.983-16.983 16.983z" fill="#fed2a4"/><path d="m130.318 242.772h30.416v-51.009h-30.416c-9.379 0-16.983 7.604-16.983 16.983v17.043c.001 9.379 7.604 16.983 16.983 16.983z" fill="#fed2a4"/><g><g id="XMLID_427_"><g><path d="m348.136 152.3v75.85c0 36.09-16.08 69.68-42.87 92.31l-27.68 23.93h-53.05l-38.39-26.98c-24.71-22.54-39.41-54.76-39.41-89.26v-81.66c0-13.06 5.54-25.5 15.24-34.24l8.61-7.75c2.69-2.41 6.76-2.43 9.46-.04l12.13 10.74c18.17 16.08 41.55 25.05 65.82 25.25l79.02.64c6.16.05 11.12 5.05 11.12 11.21z" fill="#ffe5c2"/></g></g></g><path d="m177.151 120.915c20.281 22.051 46.188 37.374 82.26 38.445l88.726 5.556v-12.616c0-6.16-4.96-11.16-11.12-11.21l-79.02-.64c-24.27-.2-47.65-9.17-65.82-25.25l-12.13-10.74c-2.7-2.39-6.77-2.37-9.46.04l-5.871 5.285z" fill="#fed2a4"/><path d="m275.266 359.116c0 15.922-12.907 28.829-28.829 28.829s-28.829-12.907-28.829-28.829v-57.172h57.658z" fill="#ffe5c2"/><g fill="#f3eae6"><path d="m348.137 215.141v-24.607l-47.859 59.587c-.055.067-.108.136-.161.204l-34.594 45.585c-2.504 3.3-1.859 8.005 1.44 10.509 1.356 1.028 2.949 1.525 4.529 1.525 2.265 0 4.504-1.022 5.98-2.966l34.516-45.481z"/><path d="m146.736 190.264v23.649l35.856 43.996 42.585 51.109c1.483 1.78 3.617 2.699 5.766 2.699 1.693 0 3.395-.57 4.797-1.738 3.183-2.651 3.613-7.381.961-10.563l-42.534-51.047z"/></g></g><path d="m261.22 347.152h-29.566c-27.438 0-49.681-22.243-49.681-49.681v-29.463c0-9.839 7.26-18.17 17.007-19.514l24.009-3.311c1.649-.227 3.242-.757 4.698-1.563l13.516-7.474c3.902-2.158 8.617-2.254 12.604-.257l15.96 7.994c1.263.633 2.617 1.063 4.013 1.277l20.402 3.12c9.617 1.471 16.72 9.743 16.72 19.472v29.717c-.001 27.44-22.244 49.683-49.682 49.683z" fill="#faf7f7"/><g><path d="m210.801 307.277v-12.725c0-19.432 14.339-35.884 33.589-38.538l7.428-1.024c1.649-.227 3.242-.757 4.698-1.562l13.516-7.474c.804-.444 1.657-.77 2.516-1.039-.957-.24-1.897-.587-2.781-1.03l-15.959-7.994c-3.987-1.997-8.702-1.901-12.605.257l-13.516 7.474c-1.457.805-3.049 1.335-4.698 1.562l-24.009 3.311c-9.747 1.344-17.007 9.674-17.007 19.513v29.463c0 27.158 21.824 49.227 48.875 49.675-12.15-9.057-20.047-23.551-20.047-39.869z" fill="#f9f3f1"/></g></g></svg>