<?xml version="1.0" encoding="UTF-8"?>
<svg xmlns="http://www.w3.org/2000/svg" xmlns:xlink="http://www.w3.org/1999/xlink" width="512" height="512" viewBox="0 0 58 58" version="1.1"><!-- Generator: Sketch 51.3 (57544) - http://www.bohemiancoding.com/sketch --><title>031 - Mental Health</title><desc>Created with Sketch.</desc><defs/><g id="Page-1" stroke="none" stroke-width="1" fill="none" fill-rule="evenodd"><g id="031---Mental-Health" fill-rule="nonzero"><path d="M17.851,50.3 C21.281,51.851 22.783,58 22.783,58 L47.883,57.931 C47.4121814,56.9546289 46.877696,56.01026 46.283,55.104 C45.810511,54.1362498 45.4139826,53.133227 45.097,52.104 C44.5096366,50.1153602 44.1029865,48.0777587 43.882,46.016 C43.5094179,42.8481972 43.9867593,39.6383095 45.265,36.716 C46.392,34.147 48.349,32.116 49.842,29.758 C51.3188424,27.4596935 52.1139104,24.7898183 52.135,22.058 C52.1906124,19.2905772 51.8508514,16.5293876 51.126,13.858 C50.1780466,10.6221548 48.200326,7.78389935 45.493,5.774 C40.534,1.881 35.474,-0.293 29.069,0.033 C25.8638786,0.255375513 22.6793554,0.71226503 19.541,1.4 C16.123,2.088 12.504,3.366 10.051,5.956 C8.37766038,7.74409793 7.08486958,9.85338818 6.251,12.156 C5.86015176,13.3014161 5.54218297,14.470419 5.299,15.656 C4.88925592,16.9460342 4.39519171,18.2077519 3.82,19.433 C3.65089796,19.8060777 3.57735228,20.2153904 3.606,20.624 C3.8,22.008 5.874,22.6 5.89,24.029 C5.86887774,24.3447852 5.77179136,24.650796 5.607,24.921 C4.39034374,27.4921042 2.89684314,29.922815 1.153,32.17 C0.742,32.67 -0.095,33.67 0.009,34.384 C0.083,34.891 0.691,35.312 1.066,35.591 C1.866,36.185 3.495,36.591 3.698,37.663 C3.80398936,38.2088042 3.73831308,38.7740394 3.51,39.281 C2.956,40.447 2.343,41.07 2.778,41.436 C3.213,41.802 4.378,42.681 4.378,42.681 C4.378,42.681 3.272,44.094 3.884,44.529 C4.645,45.069 5.612,45.318 5.871,46.329 C5.94680483,47.1301298 5.86666115,47.9383584 5.635,48.709 C5.5563755,49.462975 5.65499664,50.2248918 5.923,50.934 C6.28395493,52.3522509 7.70070311,53.2321447 9.132,52.927 C12.083746,52.2098159 14.9943653,51.332858 17.851,50.3" id="Shape" fill="#955BA5"/><path d="M9.227,16.468 C8.96351193,16.4100801 8.73460382,16.2481569 8.59224806,16.0189942 C8.4498923,15.7898316 8.40616709,15.5128728 8.471,15.251 C8.62815969,14.5562533 8.82515171,13.8711218 9.061,13.199 C9.7565457,11.2744195 10.8341474,9.51039105 12.229,8.013 C13.853,6.297 16.516,5.061 20.145,4.339 C20.4954775,4.2693332 20.856499,4.39193597 21.0920709,4.66062503 C21.3276429,4.9293141 21.4019765,5.30326919 21.2870709,5.64162505 C21.1721654,5.97998091 20.8854776,6.23133322 20.535,6.301 C17.321,6.94 15.015,7.978 13.682,9.387 C12.4735494,10.6868491 11.5402067,12.2174768 10.938,13.887 C10.7285574,14.4881971 10.5536061,15.1008605 10.414,15.722 C10.2880679,16.2528234 9.7599176,16.5847527 9.227,16.468 Z" id="Shape" fill="#B49ACA"/><circle id="Oval" fill="#B49ACA" cx="8" cy="20.001" r="1"/><path d="M44.48,15.34 L43.28,20.02 C42.883559,20.6977431 42.4030888,21.3226904 41.85,21.88 L37.61,26.12 L24.88,13.39 L29.12,9.15 C32.6374671,5.63996172 38.3325329,5.63996172 41.85,9.15 C42.3599565,9.65871017 42.8034805,10.2299153 43.17,10.85 C43.966367,12.2174088 44.4161073,13.7588849 44.48,15.34 Z" id="Shape" fill="#E6E7E8"/><path d="M44.48,15.34 L43.28,20.02 C42.883559,20.6977431 42.4030888,21.3226904 41.85,21.88 L37.61,26.12 L26.18,14.69 L30.24,10.63 C33.7574671,7.11996172 39.4525329,7.11996172 42.97,10.63 C43.04,10.7 43.11,10.78 43.17,10.85 C43.966367,12.2174088 44.4161073,13.7588849 44.48,15.34 Z" id="Shape" fill="#ECF0F1"/><path d="M37.61,26.12 L33.36,30.36 C30.131224,33.5943032 24.9895783,33.8911848 21.41,31.05 C21.1413431,30.8337418 20.8843172,30.6034199 20.64,30.36 C18.9499326,28.6749715 18.0000378,26.3865559 18.0000378,24 C18.0000378,21.6134441 18.9499326,19.3250285 20.64,17.64 L24.88,13.39 L37.61,26.12 Z" id="Shape" fill="#C03A2B"/><path d="M37.61,26.12 L33.36,30.36 C30.131224,33.5943032 24.9895783,33.8911848 21.41,31.05 C18.4140681,27.4794778 18.6486452,22.2101814 21.95,18.92 L26.18,14.69 L37.61,26.12 Z" id="Shape" fill="#E64C3C"/><path d="M58,18 C58,19.1045695 57.1045695,20 56,20 L51,20 C49.8954305,20 49,20.8954305 49,22 L49,27 C49,28.1045695 48.1045695,29 47,29 C45.8954305,29 45,28.1045695 45,27 L45,22 C45,20.8954305 44.1045695,20 43,20 L38,20 C36.8954305,20 36,19.1045695 36,18 C36,16.8954305 36.8954305,16 38,16 L43,16 C44.1045695,16 45,15.1045695 45,14 L45,9 C45,7.8954305 45.8954305,7 47,7 C48.1045695,7 49,7.8954305 49,9 L49,14 C49,15.1045695 49.8954305,16 51,16 L56,16 C57.1045695,16 58,16.8954305 58,18 Z" id="Shape" fill="#4FBA6F"/></g></g></svg>
