<svg id="Capa_1" enable-background="new 0 0 498.121 498.121" height="512" viewBox="0 0 498.121 498.121" width="512" xmlns="http://www.w3.org/2000/svg"><g><g id="XMLID_490_"><path d="m382.039 489.564c-5.403-10.766-13.294-20.142-23.059-27.319l-47.49-34.94h-25.315l-57.569 1.447-41.976-1.447-47.49 34.94c-9.765 7.177-17.656 16.553-23.059 27.319-1.751 3.489.825 7.601 4.728 7.601h256.502c3.903 0 6.479-4.112 4.728-7.601z" fill="#fef0ae"/></g><path d="m221.236 428.499-34.605-1.193-47.49 34.94c-9.765 7.177-17.656 16.553-23.059 27.319-1.751 3.489.825 7.601 4.728 7.601h33.656c5.274-9.187 12.422-17.221 21.028-23.546l45.743-33.654v-11.467z" fill="#fee97d"/><path d="m301.31 419.815 10.18 7.49c-41.14 28.68-82.77 28.02-124.86 0l10.18-7.49 14.6-33.26 15.35-46.38h45.73l14.22 46.38z" fill="#ffdfcf"/><path d="m111.537 221.347c-14.04-6.729-23.735-21.074-23.735-37.684 0-11.331 4.519-21.601 11.845-29.125-8.856-6.846-14.565-17.567-14.565-29.627 0-17.319 11.764-31.885 27.736-36.158-.056-1.048-.088-2.101-.088-3.163 0-32.365 26.237-58.601 58.601-58.601 7.259 0 14.21 1.32 20.625 3.733l135.389 77.71-86.036 170.855z" fill="#e1d3ce"/><g id="XMLID_488_"><g><path d="m393.49 142.625c15.5 17.11 18.54 42.14 7.59 62.47l-9.51 17.64-17.29 33.73-92.02 10.37 13.67-147.39 97.302 22.898z" fill="#e1d3ce"/></g></g><path d="m121.568 279.286h41.698v-58.345h-41.698c-14.086 0-25.504 11.419-25.504 25.504v7.336c-.001 14.087 11.418 25.505 25.504 25.505z" fill="#ffcebf"/><path d="m377.335 279.286h-37.698v-58.345h37.698c14.086 0 25.504 11.419 25.504 25.504v7.336c0 14.087-11.419 25.505-25.504 25.505z" fill="#ffcebf"/><g><path d="m286.71 386.555-3.679-12-10.541-34.381h-26.803-18.927l-15.35 46.38-14.6 33.26-10.18 7.49c10.245 6.82 20.462 12.006 30.652 15.555l9.624-21.924c1.664-5.028 6.775-8.03 11.989-7.098 3.487.623 7.025.943 10.556.943 8.923 0 17.898-2.026 25.954-5.86 0 0 17.067-8.589 17.198-8.941z" fill="#ffcebf"/><path d="m364.636 262.556c0 53.322-30.673 101.887-78.822 124.799l-16.855 8.021c-12.342 5.874-26.674 5.874-39.016 0l-22.619-10.764c-44.628-21.237-73.058-66.251-73.058-115.674v-99.126c0-24.794 11.118-48.281 30.295-63.996l12.406-10.167 56.569-33.357 131.1 65.234z" fill="#ffdfcf"/><path d="m265.044 173.351c7.092 0 14.048-1.129 20.642-3.3 3.311-1.09 6.933-.318 9.524 2.014 13.486 12.139 31.149 19.116 50.034 19.116 6.706 0 13.203-.899 19.392-2.561v-61.094l-131.1-65.234-56.569 33.357-12.406 10.167c-1.037.85-2.045 1.726-3.034 2.62 9.335 13.137 23.345 22.73 39.59 26.312 2.627.579 4.906 2.247 6.211 4.599 11.372 20.501 33.237 34.004 57.716 34.004z" fill="#ffcebf"/><path d="m352.713 61.919c.316-2.142.485-4.332.485-6.561 0-24.595-19.938-44.533-44.533-44.533-8.717 0-16.843 2.514-23.71 6.843-5.924-10.541-17.207-17.668-30.161-17.668-15.693 0-28.937 10.456-33.164 24.78-2.06-.283-4.16-.44-6.298-.44-25.391 0-45.975 20.584-45.975 45.975s20.584 45.975 45.975 45.975c1.541 0 3.065-.079 4.567-.227 4.063 21.236 22.725 37.288 45.145 37.288 12.065 0 23.038-4.653 31.239-12.255 9.06 17.847 27.575 30.085 48.961 30.085 30.315 0 54.89-24.575 54.89-54.89 0-27.781-20.642-50.726-47.421-54.372z" fill="#cdbfba"/><g><path d="m233.697 334.139c-2.482 0-4.972-.735-7.104-2.232l-10.886-7.637-7.345 6.079c-3.192 2.641-7.92 2.194-10.56-.996-2.641-3.191-2.195-7.919.996-10.561l8.878-7.348c4.285-3.545 10.459-3.793 15.014-.598l10.787 7.566 6.382-5.947c4.736-4.413 12.156-4.414 16.894-.001l6.382 5.948 10.786-7.566c4.554-3.194 10.729-2.948 15.015.598l8.878 7.349c3.191 2.641 3.637 7.368.996 10.56-2.641 3.191-7.368 3.637-10.56.995l-7.345-6.078-10.887 7.638c-4.761 3.342-11.307 2.888-15.563-1.079l-6.149-5.73-6.15 5.73c-2.349 2.191-5.398 3.31-8.459 3.31z" fill="#ffcebf"/></g><g><path d="m249.821 279.242c-7.045 0-14.076-2.372-19.838-7.084l-5.39-4.41c-3.206-2.622-3.679-7.348-1.057-10.554s7.348-3.681 10.554-1.056l5.39 4.408c5.782 4.73 14.019 4.937 20.03.505l6.979-5.146c3.333-2.458 8.03-1.748 10.487 1.587 2.458 3.334 1.748 8.029-1.586 10.487l-6.979 5.146c-5.543 4.085-12.072 6.117-18.59 6.117z" fill="#ffcebf"/></g><g><path d="m210.779 235.895c-1.612 0-3.237-.518-4.607-1.586l-27.943-21.794c-3.267-2.548-3.849-7.261-1.302-10.526 2.547-3.268 7.259-3.85 10.526-1.302l27.943 21.794c3.267 2.548 3.849 7.261 1.302 10.526-1.479 1.897-3.688 2.888-5.919 2.888z" fill="#ffcebf"/></g><g><path d="m182.225 234.727c-2.424 0-4.802-1.173-6.248-3.341-2.297-3.447-1.366-8.104 2.081-10.4l29.188-19.456c3.447-2.297 8.103-1.365 10.4 2.08 2.297 3.447 1.366 8.104-2.081 10.4l-29.188 19.456c-1.278.853-2.723 1.261-4.152 1.261z" fill="#ffcebf"/></g><g><path d="m159.379 201.847c-2.131 0-4.248-.903-5.731-2.658-2.674-3.163-2.278-7.896.886-10.569l30.774-26.016c3.163-2.675 7.896-2.277 10.569.886 2.674 3.163 2.278 7.896-.886 10.569l-30.774 26.016c-1.408 1.19-3.128 1.772-4.838 1.772z" fill="#e1d3ce"/></g><g><path d="m287.342 235.895c-2.232 0-4.44-.991-5.919-2.888-2.547-3.266-1.965-7.979 1.302-10.526l27.943-21.794c3.265-2.548 7.979-1.966 10.526 1.302 2.547 3.266 1.965 7.979-1.302 10.526l-27.943 21.794c-1.37 1.068-2.995 1.586-4.607 1.586z" fill="#ffcebf"/></g><g><path d="m315.896 234.727c-1.43 0-2.875-.408-4.153-1.261l-29.188-19.456c-3.447-2.297-4.378-6.953-2.081-10.4 2.297-3.446 6.955-4.378 10.4-2.08l29.188 19.456c3.447 2.297 4.378 6.953 2.081 10.4-1.445 2.168-3.823 3.341-6.247 3.341z" fill="#ffcebf"/></g><g><path d="m338.741 201.847c-1.71 0-3.43-.582-4.838-1.772l-30.774-26.016c-3.164-2.674-3.56-7.406-.886-10.569 2.672-3.163 7.406-3.561 10.569-.886l30.774 26.016c3.164 2.674 3.56 7.406.886 10.569-1.482 1.755-3.599 2.658-5.731 2.658z" fill="#e1d3ce"/></g><g><path d="m448.83 214.102c-1.489 0-2.993-.442-4.305-1.363-3.389-2.381-4.207-7.06-1.826-10.448l11.158-15.885c.497-.708.571-1.63.193-2.407l-6.621-13.633c-2.284-4.702-2.339-10.121-.15-14.868l6.59-14.298c.389-.844.249-1.844-.357-2.548l-11.492-13.352c-4.06-4.719-5.288-11.292-3.203-17.157l6.498-18.283c.347-.977.027-2.057-.796-2.687l-14.741-11.277c-3.29-2.518-3.917-7.225-1.399-10.515 2.517-3.289 7.224-3.914 10.514-1.399l14.742 11.278c6.014 4.602 8.351 12.487 5.816 19.622l-6.499 18.284c-.285.803-.117 1.703.439 2.35l11.491 13.351c4.426 5.143 5.452 12.448 2.611 18.611l-6.591 14.3c-.299.649-.292 1.392.021 2.035l6.622 13.633c2.758 5.679 2.217 12.415-1.412 17.581l-11.158 15.885c-1.462 2.079-3.785 3.19-6.145 3.19z" fill="#a6e7f0"/></g><g><path d="m49.291 214.102c-2.36 0-4.684-1.111-6.144-3.19l-11.158-15.885c-3.629-5.166-4.17-11.902-1.412-17.581l6.622-13.633c.313-.644.32-1.386.021-2.034l-6.591-14.3c-2.841-6.164-1.815-13.47 2.611-18.612l11.491-13.352c.556-.646.724-1.546.438-2.349l-6.498-18.283c-2.535-7.136-.198-15.021 5.815-19.622l14.742-11.279c3.288-2.516 7.997-1.892 10.514 1.399 2.517 3.29 1.891 7.997-1.399 10.515l-14.741 11.278c-.823.629-1.143 1.709-.795 2.687l6.498 18.282c2.084 5.865.857 12.438-3.203 17.156l-11.492 13.353c-.606.704-.747 1.704-.357 2.549l6.59 14.298c2.188 4.746 2.134 10.165-.15 14.867l-6.622 13.633c-.377.777-.303 1.699.194 2.407l11.158 15.885c2.381 3.389 1.563 8.067-1.826 10.448-1.313.921-2.817 1.363-4.306 1.363z" fill="#a6e7f0"/></g><g><path d="m69.141 498.121c-.317 0-.638-.021-.961-.062-4.109-.525-7.013-4.282-6.488-8.392l1.865-14.574c.62-4.843 3.782-9.068 8.253-11.028l10.231-4.485.939-7.345c.676-5.278 4.371-9.783 9.414-11.479l15.206-5.11 3.483-11.841c1.488-5.055 5.625-8.805 10.799-9.789l15.849-3.016c4.069-.774 7.996 1.896 8.77 5.966.774 4.069-1.896 7.995-5.965 8.771l-15.237 2.899-3.458 11.754c-1.288 4.376-4.637 7.854-8.959 9.307l-15.103 5.076-.932 7.283c-.62 4.844-3.783 9.069-8.254 11.03l-10.23 4.484-1.792 14.002c-.484 3.785-3.712 6.549-7.43 6.549z" fill="#a6e7f0"/></g><g><path d="m428.98 498.121c-3.718 0-6.946-2.764-7.43-6.549l-1.792-14.002-10.23-4.484c-4.472-1.961-7.634-6.187-8.254-11.029l-.932-7.284-15.104-5.076c-4.322-1.452-7.671-4.931-8.958-9.306l-3.458-11.755-15.237-2.899c-4.069-.775-6.74-4.701-5.965-8.771.774-4.069 4.697-6.737 8.77-5.966l15.849 3.017c5.173.984 9.311 4.734 10.798 9.788l3.483 11.842 15.206 5.11c5.043 1.695 8.738 6.2 9.414 11.477l.939 7.347 10.23 4.484c4.472 1.961 7.634 6.187 8.254 11.029l1.865 14.574c.525 4.109-2.379 7.866-6.488 8.392-.322.04-.643.061-.96.061zm-55.545-69.369h.01z" fill="#a6e7f0"/></g></g></g></svg>