<svg height="512" viewBox="0 0 58 50" width="512" xmlns="http://www.w3.org/2000/svg"><g id="Page-1" fill="none" fill-rule="evenodd"><g id="028---Eye-Picture" fill-rule="nonzero" transform="translate(-1)"><path id="Shape" d="m50 27h6c1.6568542 0 3-1.3431458 3-3v-18c-.0032948-1.10320187-.8967981-1.9967052-2-2h-9c-1.1032019.0032948-1.9967052.89679813-2 2v2z" fill="#35495e"/><path id="Shape" d="m32.07 33c-.0736812-.2781321-.0771175-.5702114-.01-.85.17-.68.82-.85 1.33-1.21.41-.29-.33-1.24-.33-1.24s.79-.59 1.07-.84c.3-.25-.11-.67-.49-1.45-.1494223-.3428073-.191267-.7228966-.12-1.09.13-.72 1.23-.99 1.76-1.39.84-.63 1.09-.9-.05-2.3-1.28-1.57-3.18-4.89-3.18-5.48.01-.96 1.4-1.36 1.53-2.29.09-.64-.62-1.73-1-2.86l-1.28-4c-.5245318-1.10275374-1.2159917-2.11801926-2.05-3.01-1.7356633-1.60905129-3.9117068-2.66399718-6.25-3.03-8.47-1.96-12.71-.89-17.54 2.91-1.81621582 1.35150596-3.14307573 3.25755075-3.78 5.43-.48524849 1.7988423-.71417304 3.657171-.68 5.52.07 4.94 3.22 6.67 4.61 9.86.85987211 1.9672088 1.18085148 4.1277796.93 6.26-.18174601 2.114022-.72637965 4.1809236-1.61 6.11l-.007.014c-.21115348.4086938-.19557949.8975908.04115768 1.2920169.23673716.3944261.66086196.6381082 1.12084232.6439831h13.875c.4325739-.0003187.8159022-.278736.95-.69.4279702-1.5251436 1.2486287-2.9112978 2.38-4.02z" fill="#fdd7ad"/><path id="Shape" d="m5 15c-.55228475 0-1-.4477153-1-1 0-5.612 5.4-7.836 5.629-7.929.5127964-.20544991 1.0950501.04370363 1.3005.55650001s-.0437036 1.09505006-.5565 1.30049999c-.193.079-4.373 1.837-4.373 6.072 0 .5522847-.44771525 1-1 1z" fill="#ecf0f1"/><circle id="Oval" cx="14" cy="5" fill="#ecf0f1" r="1"/><path id="Shape" d="m25.653 36.375c-.1077785-.0001372-.214826-.017697-.317-.052-1.234-.412-2.409-.823-3.265-1.122-.562-.2-.983-.344-1.187-.409-3.771-1.172-4.526-2.935-4.494-4.207.0135667-.5424976.4573329-.9751696 1-.975h.025c.265244.0065482.5170128.1182384.6998783.3104816s.2818356.4492786.2751217.7145184c-.021.812 1.108 1.632 3.1 2.25.222.072.66.224 1.243.428.85.3 2.016.7 3.241 1.114.4645173.1559515.7476103.6255159.668666 1.1091118s-.4966689.8387558-.986666.8388882z" fill="#f9c795"/><rect id="Rectangle-path" fill="#95a5a5" height="8" rx="2" width="18" x="41" y="33"/><path id="Shape" d="m31 37v12c0 .5522847-.4477153 1-1 1h-2c-.5522847 0-1-.4477153-1-1v-12z" fill="#285680"/><path id="Shape" d="m26 37h9c1.1045695 0 2-.8954305 2-2s-.8954305-2-2-2h-8v-21h8c1.1045695 0 2-.8954305 2-2s-.8954305-2-2-2h-9c-1.6568542 0-3 1.34314575-3 3v23c0 1.6568542 1.3431458 3 3 3z" fill="#3b97d3"/><path id="Shape" d="m46 8h2c1.1045695 0 2 .8954305 2 2v23h-6v-23c0-1.1045695.8954305-2 2-2z" fill="#7f8c8d"/><path id="Shape" d="m44 20-3.629 1.451c-.3079694.1230375-.6569033.0853903-.9315411-.1005061-.2746378-.1858963-.439249-.4958566-.4394589-.8274939v-4.523c0-.5522847.4477153-1 1-1h4z" fill="#2c3e50"/><path id="Rectangle-path" d="m50 27h5v6h-5z" fill="#2c3e50"/><circle id="Oval" cx="53" cy="3" fill="#3b97d3" r="3"/></g></g></svg>