<?xml version="1.0" encoding="iso-8859-1"?>
<!-- Generator: Adobe Illustrator 19.0.0, SVG Export Plug-In . SVG Version: 6.00 Build 0)  -->
<svg version="1.1" id="Capa_1" xmlns="http://www.w3.org/2000/svg" xmlns:xlink="http://www.w3.org/1999/xlink" x="0px" y="0px"
	 viewBox="0 0 512 512" style="enable-background:new 0 0 512 512;" xml:space="preserve">
<path style="fill:#FCACAB;" d="M247.5,346h-85c-52.383,0-95-42.617-95-95s42.617-95,95-95s95,42.617,95,95v40.213l-10,10V346z"/>
<path style="fill:#BD9475;" d="M162.5,156c-52.383,0-95,42.617-95,95c0,52.049,42.077,94.448,94,94.987V214h88.498
	C235.542,179.945,201.765,156,162.5,156z"/>
<path style="fill:#9E7957;" d="M162.5,156c-0.334,0-0.667,0.009-1,0.013V214h88.498C235.542,179.945,201.765,156,162.5,156z"/>
<path style="fill:#8FE673;" d="M191.5,512h-171v-61c0-57.897,47.103-105,105-105h66V512z"/>
<path style="fill:#76CC5B;" d="M125.5,346c-6.662,0-13.179,0.631-19.5,1.823V512h85.5V346H125.5z"/>
<rect x="271.005" y="336.505" transform="matrix(-0.7071 -0.7071 0.7071 -0.7071 229.795 826.1776)" style="fill:#56535A;" width="30" height="57.982"/>
<rect x="291.5" y="175" style="fill:#AFAEB4;" width="30" height="211"/>
<path style="fill:#56535A;" d="M306.5,326c-11.028,0-20-8.972-20-20s8.972-20,20-20s20,8.972,20,20S317.528,326,306.5,326z"/>
<path style="fill:#DFDFE1;" d="M321.5,512h-110v-81h110V512z"/>
<g>
	<path style="fill:#AFAEB4;" d="M321.5,512h-50v-81h50V512z"/>
	<path style="fill:#AFAEB4;" d="M365.5,431h-59v-30h59c8.271,0,15-6.729,15-15V264h30v122C410.5,410.813,390.313,431,365.5,431z"/>
</g>
<rect x="447.5" y="214" style="fill:#56535A;" width="44" height="30"/>
<g>
	<path style="fill:#DFDFE1;" d="M448.5,204h-68l-28,20v30l28,20h68c8.284,0,15-6.716,15-15v-40C463.5,210.716,456.784,204,448.5,204
		z"/>
	<path style="fill:#DFDFE1;" d="M191.5,386h-30V149.698l-17.563-33.451c-2.249-4.285-3.438-9.107-3.438-13.945V56h30v46.302
		l17.563,33.451c2.249,4.285,3.438,9.107,3.438,13.945V386z"/>
</g>
<path style="fill:#F2F2F4;" d="M321.5,461h-160v-90h160V461z"/>
<g>
	<path style="fill:#DFDFE1;" d="M321.5,461h-50v-90h50V461z"/>
	<path style="fill:#DFDFE1;" d="M306.5,0c-30.327,0-55,24.673-55,55v85h20v50h70v-50h20V55C361.5,24.673,336.827,0,306.5,0z"/>
</g>
<g>
</g>
<g>
</g>
<g>
</g>
<g>
</g>
<g>
</g>
<g>
</g>
<g>
</g>
<g>
</g>
<g>
</g>
<g>
</g>
<g>
</g>
<g>
</g>
<g>
</g>
<g>
</g>
<g>
</g>
</svg>
