<svg height="512" viewBox="0 0 58 59" width="512" xmlns="http://www.w3.org/2000/svg"><g id="Page-1" fill="none" fill-rule="evenodd"><g id="012---Blood-Pressure" fill-rule="nonzero"><path id="Shape" d="m57.97 49.34c-.1994114.984296-1.0759912 1.6838741-2.08 1.66h-.89c.5897355.0002619 1.1492934.2607843 1.5291038.7119297.3798104.4511453.5411513 1.0469189.4408962 1.6280703-.1994114.984296-1.0759912 1.6838741-2.08 1.66h-.89c.5897355.0002619 1.1492934.2607843 1.5291038.7119297.3798104.4511453.5411513 1.0469189.4408962 1.6280703-.1994114.984296-1.0759912 1.6838741-2.08 1.66h-8.98c-.5929496-.0040546-1.1723821-.1775374-1.67-.5l-1.48-1c-.4976179-.3224626-1.0770504-.4959454-1.67-.5h-28.09c-5.5228475 0-10-4.4771525-10-10v-7h16v3c.0032948 1.1032019.8967981 1.9967052 2 2h19.59c.8919881.0000577 1.7380608-.3955087 2.31-1.08l3.2-3.84c.5719392-.6844913 1.4180119-1.0800577 2.31-1.08h3.59c1.1032019.0032948 1.9967052.8967981 2 2v2h3c1.1045695 0 2 .8954305 2 2s-.8954305 2-2 2c.5897355.0002619 1.1492934.2607843 1.5291038.7119297.3798104.4511453.5411513 1.0469189.4408962 1.6280703z" fill="#fdd7ad"/><path id="Shape" d="m34 42c-3.3123376-.0033074-5.9966926-2.6876624-6-6v-20c0-.5522847-.4477153-1-1-1s-1 .4477153-1 1v8c0 2.209139-1.790861 4-4 4h-3.481v-2h3.481c1.1045695 0 2-.8954305 2-2v-8c0-1.6568542 1.3431458-3 3-3s3 1.3431458 3 3v20c0 2.209139 1.790861 4 4 4s4-1.790861 4-4v-2.741h2v2.741c-.0033074 3.3123376-2.6876624 5.9966926-6 6z" fill="#7f8c8d"/><circle id="Oval" cx="39" cy="8" fill="#ecf0f1" r="7"/><path id="Shape" d="m18 9v9h-16v-9c0-4.418278 3.581722-8 8-8s8 3.581722 8 8z" fill="#fdd7ad"/><rect id="Rectangle-path" fill="#3f5c6c" height="24" rx="2" width="20" y="17"/><path id="Shape" d="m53 41v2h-4c-.5522847 0-1-.4477153-1-1s.4477153-1 1-1z" fill="#cbb292"/><rect id="Rectangle-path" fill="#95a5a5" height="4" rx="2" width="10" x="34" y="15"/><path id="Shape" d="m45 27c0 .34-.02.67-.05 1-.0573691.7033652-.1949281 1.3978706-.41 2.07-.2047974.6767776-.4937217 1.3251776-.86 1.93-.9185047 1.7583553-2.6987451 2.8995351-4.68 3-1.9812549-.1004649-3.7614953-1.2416447-4.68-3-.3662783-.6048224-.6552026-1.2532224-.86-1.93-.2150719-.6721294-.3526309-1.3666348-.41-2.07-.03-.33-.05-.66-.05-1s.02-.67.05-1c.0688982-.7295642.2129967-1.4500568.43-2.15.2086093-.6466532.4904379-1.2673471.84-1.85.9185047-1.7583553 2.6987451-2.8995351 4.68-3 1.9812549.1004649 3.7614953 1.2416447 4.68 3 .3495621.5826529.6313907 1.2033468.84 1.85.2170033.6999432.3611018 1.4204358.43 2.15.03.33.05.66.05 1z" fill="#393f4a"/><path id="Shape" d="m38 23c0 .5522847-.4477153 1-1 1h-3c-.1843626.0025951-.3653443-.0496111-.52-.15.2086093-.6466532.4904379-1.2673471.84-1.85h2.68c.5522847 0 1 .4477153 1 1z" fill="#464f5d"/><path id="Shape" d="m44.52 23.85c-.1546557.1003889-.3356374.1525951-.52.15h-3c-.5522847 0-1-.4477153-1-1s.4477153-1 1-1h2.68c.3495621.5826529.6313907 1.2033468.84 1.85z" fill="#464f5d"/><path id="Shape" d="m38 27c0 .5522847-.4477153 1-1 1h-3.95c-.03-.33-.05-.66-.05-1s.02-.67.05-1h3.95c.5522847 0 1 .4477153 1 1z" fill="#464f5d"/><path id="Shape" d="m45 27c0 .34-.02.67-.05 1h-3.95c-.5522847 0-1-.4477153-1-1s.4477153-1 1-1h3.95c.03.33.05.66.05 1z" fill="#464f5d"/><path id="Shape" d="m38 31c0 .5522847-.4477153 1-1 1h-2.68c-.3662783-.6048224-.6552026-1.2532224-.86-1.93.1103236-.0480774.2296715-.071947.35-.07h3.19c.2652165 0 .5195704.1053568.7071068.2928932s.2928932.4418903.2928932.7071068z" fill="#464f5d"/><path id="Shape" d="m44.54 30.07c-.2047974.6767776-.4937217 1.3251776-.86 1.93h-2.68c-.5522847 0-1-.4477153-1-1s.4477153-1 1-1h3.19c.1203285-.001947.2396764.0219226.35.07z" fill="#464f5d"/><g fill="#7f8c8d"><path id="Shape" d="m39 4c-.5522847 0-1-.44771525-1-1v-2c0-.55228475.4477153-1 1-1s1 .44771525 1 1v2c0 .55228475-.4477153 1-1 1z"/><path id="Shape" d="m35.464 5.464c-.2651948-.00005664-.5195073-.10545063-.707-.293l-.964-.964c-.3789722-.39237889-.3735524-1.01608478.0121814-1.40181858.3857338-.38573379 1.0094397-.39115363 1.4018186-.01218142l.964.964c.2859079.28599425.3714219.71603662.216678 1.08965456s-.5192821.61725909-.923678.61734544z"/><path id="Shape" d="m34 9h-2c-.5522847 0-1-.44771525-1-1s.4477153-1 1-1h2c.5522847 0 1 .44771525 1 1s-.4477153 1-1 1z"/><path id="Shape" d="m34.5 13.5c-.4043959-.0000863-.7689341-.2437275-.923678-.6173454-.1547439-.373618-.0692299-.8036603.216678-1.0896546l.964-.964c.3923789-.3789722 1.0160848-.3735524 1.4018186.0121814s.3911536 1.0094397.0121814 1.4018186l-.964.964c-.1874927.1875494-.4418052.2929434-.707.293z"/><path id="Shape" d="m43.5 13.5c-.2651948-.0000566-.5195073-.1054506-.707-.293l-.964-.964c-.3789722-.3923789-.3735524-1.0160848.0121814-1.4018186s1.0094397-.3911536 1.4018186-.0121814l.964.964c.2859079.2859943.3714219.7160366.216678 1.0896546-.1547439.3736179-.5192821.6172591-.923678.6173454z"/><path id="Shape" d="m46 9h-2c-.5522847 0-1-.44771525-1-1s.4477153-1 1-1h2c.5522847 0 1 .44771525 1 1s-.4477153 1-1 1z"/><path id="Shape" d="m42.536 5.464c-.4043959-.00008635-.7689341-.2437275-.923678-.61734544s-.0692299-.80366031.216678-1.08965456l.964-.964c.2510745-.25995658.6228779-.3642126.9725073-.27269716.3496295.09151544.6226744.3645604.7141899.71418984.0915154.34962943-.0127406.72143285-.2726972.97250732l-.964.964c-.1874927.18754937-.4418052.29294336-.707.293z"/></g><path id="Shape" d="m39 9c-.4043959-.00008635-.7689341-.2437275-.923678-.61734544s-.0692299-.80366031.216678-1.08965456l1-1c.2510745-.25995658.6228779-.3642126.9725073-.27269716.3496295.09151544.6226744.3645604.7141899.71418984.0915154.34962943-.0127406.72143285-.2726972.97250732l-1 1c-.1874927.18754937-.4418052.29294336-.707.293z" fill="#e64c3c"/><path id="Shape" d="m4 38c-.55228475 0-1-.4477153-1-1v-16c0-.5522847.44771525-1 1-1s1 .4477153 1 1v16c0 .5522847-.44771525 1-1 1z" fill="#35495e"/><path id="Shape" d="m16 38c-.5522847 0-1-.4477153-1-1v-16c0-.5522847.4477153-1 1-1s1 .4477153 1 1v16c0 .5522847-.4477153 1-1 1z" fill="#35495e"/><path id="Shape" d="m12 28h-4c-.55228475 0-1-.4477153-1-1s.44771525-1 1-1h4c.5522847 0 1 .4477153 1 1s-.4477153 1-1 1z" fill="#ecf0f1"/><path id="Shape" d="m11 32h-2c-.55228475 0-1-.4477153-1-1s.44771525-1 1-1h2c.5522847 0 1 .4477153 1 1s-.4477153 1-1 1z" fill="#ecf0f1"/><path id="Shape" d="m39 16c-4.418278 0-8-3.581722-8-8s3.581722-8 8-8 8 3.581722 8 8c-.0049599 4.4162219-3.5837781 7.9950401-8 8zm0-14c-3.3137085 0-6 2.6862915-6 6s2.6862915 6 6 6 6-2.6862915 6-6c-.0033074-3.31233757-2.6876624-5.99669262-6-6z" fill="#bdc3c7"/></g></g></svg>