<svg height="488pt" viewBox="-1 0 487 488" width="488pt" xmlns="http://www.w3.org/2000/svg"><path d="m66.355469 161.421875v-21.421875h-.171875c-3.082032 0-5.578125-2.496094-5.578125-5.574219v-130.425781h-56.109375v478.757812h74.035156zm0 0" fill="#a4c9ff"/><path d="m78.53125 486.757812h-74.03125c-2.207031 0-4-1.792968-4-4v-478.757812c0-2.207031 1.792969-4 4-4h56.105469c2.207031 0 4 1.792969 4 4v130.425781c0 .867188.707031 1.574219 1.578125 1.574219 2.207031 0 4.175781 1.792969 4.175781 4v21.34375l12.171875 321.261719c.039062 1.089843-.363281 2.144531-1.117188 2.925781-.753906.785156-1.796874 1.226562-2.882812 1.226562zm-70.03125-8h65.878906l-12.019531-317.183593c0-.050781 0-.101563 0-.152344v-18.246094c-3.417969-1.496093-5.753906-4.855469-5.753906-8.75v-126.425781h-48.105469zm0 0" fill="#3762cc"/><path d="m66.355469 140.003906v21.417969l12.222656 322.582031h110.722656l20.132813-322.582031v-21.417969zm0 0" fill="#f9cfcf"/><path d="m66.183594 140.003906h150.507812c3.078125 0 5.574219-2.496094 5.574219-5.578125v-130.421875h-161.660156v130.421875c0 3.078125 2.496093 5.578125 5.578125 5.578125zm0 0" fill="#a4c9ff"/><path d="m216.691406 144h-150.507812c-5.285156 0-9.578125-4.292969-9.578125-9.574219v-130.425781c0-2.207031 1.789062-4 4-4h161.660156c2.207031 0 4 1.792969 4 4v130.425781c0 5.28125-4.296875 9.574219-9.574219 9.574219zm-152.085937-136v126.425781c0 .867188.707031 1.574219 1.578125 1.574219h150.507812c.867188 0 1.578125-.707031 1.578125-1.574219v-126.425781zm0 0" fill="#3762cc"/><path d="m189.300781 488h-110.722656c-2.148437 0-3.914063-1.699219-3.996094-3.847656l-12.222656-322.582032v-21.570312c0-2.207031 1.789063-4 4-4h143.074219c2.207031 0 4 1.792969 4 4v21.421875c0 .082031 0 .164063-.007813.25l-20.132812 322.578125c-.132813 2.109375-1.878907 3.75-3.992188 3.75zm-106.871093-8h103.113281l19.890625-318.707031v-17.292969h-135.078125v17.421875zm0 0" fill="#3762cc"/><path d="m189.300781 488h-110.722656c-2.148437 0-3.914063-1.699219-3.996094-3.847656l-12.222656-322.582032v-18.398437c-3.417969-1.492187-5.753906-4.855469-5.753906-8.746094v-130.425781c0-2.207031 1.792969-4 4-4h161.664062c2.207031 0 4 1.792969 4 4v130.425781c0 5.28125-4.296875 9.574219-9.578125 9.574219h-3.257812v17.421875c0 .082031 0 .164063-.007813.25l-20.132812 322.578125c-.132813 2.109375-1.878907 3.75-3.992188 3.75zm-106.871093-8h103.113281l19.890625-318.707031v-21.292969c0-2.207031 1.789062-4 4-4h7.253906c.871094 0 1.578125-.707031 1.578125-1.574219v-126.425781h-153.660156v126.425781c0 .867188.707031 1.574219 1.578125 1.574219 2.207031 0 4.171875 1.792969 4.171875 4v21.421875zm0 0" fill="#3762cc"/><path d="m482.1875 151.972656c0 66.605469-53.992188 120.597656-120.59375 120.597656-66.605469 0-120.597656-53.992187-120.597656-120.597656 0-66.601562 53.992187-120.59375 120.597656-120.59375 66.601562 0 120.59375 53.992188 120.59375 120.59375zm0 0" fill="#f9a7a7"/><path d="m361.59375 246.234375c-51.976562 0-94.265625-42.28125-94.265625-94.257813 0-51.976562 42.289063-94.261718 94.265625-94.261718 51.972656 0 94.257812 42.285156 94.257812 94.261718 0 51.976563-42.285156 94.257813-94.257812 94.257813zm0 0" fill="#e0ebfc"/><path d="m361.59375 276.570312c-68.703125 0-124.597656-55.890624-124.597656-124.597656 0-68.699218 55.894531-124.59375 124.597656-124.59375 68.699219 0 124.59375 55.894532 124.59375 124.59375 0 68.703125-55.894531 124.597656-124.59375 124.597656zm0-241.191406c-64.292969 0-116.597656 52.304688-116.597656 116.59375 0 64.292969 52.304687 116.597656 116.597656 116.597656 64.289062 0 116.59375-52.304687 116.59375-116.597656 0-64.289062-52.304688-116.59375-116.59375-116.59375zm0 0" fill="#3762cc"/><path d="m361.59375 250.234375c-54.183594 0-98.261719-44.078125-98.261719-98.257813 0-54.183593 44.078125-98.265624 98.261719-98.265624s98.261719 44.082031 98.261719 98.265624c0 54.179688-44.082031 98.257813-98.261719 98.257813zm0-188.523437c-49.773438 0-90.261719 40.492187-90.261719 90.265624 0 49.769532 40.492188 90.257813 90.261719 90.257813s90.261719-40.488281 90.261719-90.257813c0-49.773437-40.492188-90.265624-90.261719-90.265624zm0 0" fill="#3762cc"/><path d="m215.378906 440.53125h-157.125c-8.527344 0-15.4375-6.914062-15.4375-15.4375v-209.125c0-8.527344 6.910156-15.4375 15.4375-15.4375h157.125c8.523438 0 15.4375 6.910156 15.4375 15.4375v209.125c0 8.523438-6.914062 15.4375-15.4375 15.4375zm0 0" fill="#4671c6"/><path d="m178.449219 263.605469c-14.199219-4.304688-29.308594-.546875-40.554688 8.660156-11.246093-9.207031-26.355469-12.964844-40.554687-8.660156-24.429688 7.402343-36.980469 34.570312-27.953125 59.367187 3.273437 9.003906 8.929687 16.414063 15.925781 21.726563l.015625.015625h.003906l46.792969 36.085937s.90625.984375 2.355469 1.785157c.257812.160156.527343.289062.796875.390624 1.863281.804688 4.363281 1.097657 6.957031-.867187v.007813l.167969-.136719c.054687-.042969.109375-.089844.164062-.132813l5.898438-4.753906 41.988281-32.378906h.003906l.015625-.015625c6.996094-5.3125 12.652344-12.722657 15.925782-21.726563 9.03125-24.800781-3.519532-51.964844-27.949219-59.367187zm0 0" fill="#f9a7a7"/><path d="m215.378906 444.53125h-157.125c-10.71875 0-19.4375-8.71875-19.4375-19.4375v-209.125c0-10.71875 8.71875-19.4375 19.4375-19.4375h157.125c10.71875 0 19.4375 8.714844 19.4375 19.4375v209.125c0 10.71875-8.71875 19.4375-19.4375 19.4375zm-157.125-240c-6.308594 0-11.4375 5.128906-11.4375 11.4375v209.125c0 6.304688 5.128906 11.4375 11.4375 11.4375h157.125c6.304688 0 11.4375-5.128906 11.4375-11.4375v-209.125c0-6.308594-5.128906-11.4375-11.4375-11.4375zm0 0" fill="#3762cc"/><path d="m200.5 356.363281c-1.523438 0-2.976562-.875-3.644531-2.355469l-9.78125-21.644531h-26.175781c-1.710938 0-3.234376-1.089843-3.785157-2.710937l-7.710937-22.597656-4.675782 22.132812c-.386718 1.851562-2.023437 3.175781-3.914062 3.175781h-36.460938c-2.207031 0-4-1.792969-4-4 0-2.210937 1.792969-4 4-4h33.21875l7.015626-33.1875c.371093-1.765625 1.875-3.058593 3.671874-3.167969 1.777344-.128906 3.445313 1 4.027344 2.703126l11.472656 33.652343h25.898438c1.570312 0 2.996094.917969 3.644531 2.351563l10.839844 24c.910156 2.015625.015625 4.382812-1.996094 5.292968-.53125.242188-1.09375.355469-1.644531.355469zm0 0" fill="#f9cfcf"/><path d="m333.328125 151.972656c0-15.582031 12.683594-28.261718 28.265625-28.261718s28.257812 12.679687 28.257812 28.261718h50c0-43.152344-35.109374-78.261718-78.257812-78.261718-43.15625 0-78.265625 35.109374-78.265625 78.261718zm0 0" fill="#6bdddd"/><path d="m361.59375 73.710938c-17.03125 0-32.796875 5.484374-45.65625 14.757812l27.550781 41.828125c4.910157-4.105469 11.222657-6.585937 18.105469-6.585937 5.671875 0 10.945312 1.695312 15.375 4.582031l23.152344-44.398438c-11.382813-6.46875-24.527344-10.183593-38.527344-10.183593zm0 0" fill="#ffea92"/><path d="m400.335938 84.019531-24.761719 43.425781c8.515625 4.875 14.28125 14.035157 14.28125 24.527344h50c0-29.0625-15.9375-54.457031-39.519531-67.953125zm0 0" fill="#f9a7a7"/><g fill="#4671c6"><path d="m350.898438 167.964844c6.488281 6.488281 17.230468 5.644531 22.628906-1.773438l39.371094-54.140625c2.921874-4.011719-2.070313-9.003906-6.085938-6.085937l-54.136719 39.375c-7.417969 5.394531-8.261719 16.140625-1.777343 22.625zm0 0"/><path d="m290.738281 163.976562-2.210937-4.9375c-.261719-.589843-.847656-.96875-1.492188-.96875h-2.984375c-.90625 0-1.640625.734376-1.640625 1.636719v15.535157c0 .902343.734375 1.636718 1.640625 1.636718h2.851563c.902344 0 1.636718-.734375 1.636718-1.636718v-2.050782l1.21875 2.71875c.261719.59375.847657.96875 1.496094.96875h1.957032c.648437 0 1.234374-.378906 1.496093-.972656l1.191407-2.675781v2.011719c0 .902343.734374 1.636718 1.640624 1.636718h2.851563c.902344 0 1.636719-.734375 1.636719-1.636718v-15.535157c0-.902343-.734375-1.636719-1.636719-1.636719h-2.964844c-.644531 0-1.230469.378907-1.496093.96875l-2.199219 4.9375c-.578125 1.292969-2.410157 1.296876-2.992188 0zm0 0"/><path d="m306.953125 176.878906h2.851563c.902343 0 1.636718-.734375 1.636718-1.636718v-15.535157c0-.902343-.734375-1.636719-1.636718-1.636719h-2.851563c-.90625 0-1.640625.734376-1.640625 1.636719v15.535157c0 .902343.734375 1.636718 1.640625 1.636718zm0 0"/><path d="m324.695312 159.683594v.003906c0 1.625-2.109374 2.257812-3.003906.90625l-1.203125-1.8125c-.300781-.460938-.8125-.734375-1.363281-.734375h-2.769531c-.902344 0-1.636719.734375-1.636719 1.636719v15.554687c0 .90625.734375 1.640625 1.636719 1.640625h2.851562c.90625 0 1.640625-.734375 1.640625-1.640625v-.003906c0-1.625 2.105469-2.257813 3.003906-.90625l1.195313 1.816406c.304687.457031.816406.734375 1.367187.734375h2.769532c.902344 0 1.636718-.734375 1.636718-1.640625v-15.554687c0-.902344-.734374-1.636719-1.636718-1.636719h-2.855469c-.898437 0-1.632813.734375-1.632813 1.636719zm0 0"/><path d="m395.523438 164.019531-1.789063-3.992187c-.261719-.585938-.84375-.964844-1.488281-.964844h-2.402344c-.898438 0-1.628906.730469-1.628906 1.632812v13.578126c0 .898437.730468 1.628906 1.628906 1.628906h2.226562c.902344 0 1.632813-.730469 1.632813-1.628906v-1.671876l1.042969 2.335938c.265625.585938.847656.964844 1.488281.964844h1.542969c.644531 0 1.226562-.378906 1.488281-.964844l1.023437-2.304688v1.640626c0 .898437.730469 1.628906 1.632813 1.628906h2.226563c.898437 0 1.628906-.730469 1.628906-1.628906v-13.578126c0-.902343-.730469-1.632812-1.628906-1.632812h-2.382813c-.644531 0-1.226563.378906-1.488281.96875l-1.78125 3.988281c-.570313 1.285157-2.398438 1.285157-2.972656 0zm0 0"/><path d="m437.699219 159.0625h-2.480469c-.582031 0-1.117188.308594-1.410156.808594l-.167969.289062c-.617187 1.058594-2.140625 1.082032-2.789063.039063l-.230468-.367188c-.296875-.476562-.820313-.769531-1.382813-.769531h-2.503906c-1.277344 0-2.054687 1.40625-1.378906 2.492188l3.164062 5.078124c.328125.527344.332031 1.195313 0 1.722657l-2.699219 4.335937c-.71875 1.15625-2.457031.972656-2.917968-.3125l-4.382813-12.257812c-.234375-.648438-.847656-1.078125-1.535156-1.078125h-2.578125c-.6875 0-1.300781.429687-1.535156 1.078125l-4.863282 13.597656c-.382812 1.0625.402344 2.179688 1.53125 2.179688h2.328126c.691406 0 1.308593-.4375 1.535156-1.089844l.210937-.597656c.230469-.652344.84375-1.085938 1.535157-1.085938h1.070312c.691406 0 1.308594.433594 1.539062 1.085938l.207032.597656c.230468.652344.847656 1.089844 1.539062 1.089844h9.726563c.582031 0 1.117187-.308594 1.410156-.808594l.148437-.257813c.617188-1.058593 2.144532-1.082031 2.789063-.039062l.210937.335937c.300782.480469.820313.769532 1.382813.769532h2.5c1.277344 0 2.058594-1.40625 1.382813-2.492188l-3.148438-5.054688c-.328125-.527343-.328125-1.195312 0-1.722656l3.167969-5.074218c.6875-1.085938-.09375-2.492188-1.375-2.492188zm0 0"/></g><path d="m254.125 336.195312h-23.308594v-31.332031h23.308594c4.800781 0 8.691406 3.890625 8.691406 8.691407v13.953124c0 4.796876-3.890625 8.6875-8.691406 8.6875zm0 0" fill="#6bdddd"/><path d="m361.59375 272.570312c-8.09375 0-15.960938-.953124-23.523438-2.695312v10.789062c0 8.394532 6.804688 15.203126 15.199219 15.203126h15.199219c8.398438 0 15.203125-6.804688 15.203125-15.203126v-10.457031c-7.121094 1.535157-14.5 2.363281-22.078125 2.363281zm0 0" fill="#6bdddd"/><path d="m368.46875 295.867188h-15.199219c-.652343 0-1.292969-.054688-1.925781-.136719l-.167969 8.914062c-.0625 3.246094-2.753906 5.886719-6 5.886719h-82.933593c.355468.945312.574218 1.957031.574218 3.023438v13.953124c0 1.066407-.21875 2.078126-.574218 3.023438h82.933593c14.0625 0 25.722657-11.4375 25.996094-25.5l.179687-9.445312c-.9375.179687-1.894531.28125-2.882812.28125zm0 0" fill="#e0ebfc"/><path d="m368.46875 299.867188h-15.199219c-10.585937 0-19.199219-8.613282-19.199219-19.203126v-10.789062c0-1.21875.554688-2.371094 1.507813-3.128906.953125-.761719 2.207031-1.042969 3.386719-.769532 14.484375 3.335938 29.433594 3.429688 43.863281.320313 1.179687-.257813 2.414063.042969 3.355469.800781.9375.757813 1.488281 1.898438 1.488281 3.109375v10.457031c0 10.589844-8.617187 19.203126-19.203125 19.203126zm-26.398438-25.082032v5.878906c0 6.179688 5.023438 11.203126 11.199219 11.203126h15.199219c6.175781 0 11.203125-5.023438 11.203125-11.203126v-5.617187c-12.445313 2.101563-25.132813 2.019531-37.601563-.261719zm0 0" fill="#3762cc"/><path d="m254.125 340.195312h-23.308594c-2.207031 0-4-1.792968-4-4v-31.332031c0-2.207031 1.792969-4 4-4h23.308594c7 0 12.691406 5.695313 12.691406 12.691407v13.953124c0 6.996094-5.695312 12.6875-12.691406 12.6875zm-19.308594-8h19.308594c2.585938 0 4.691406-2.105468 4.691406-4.691406v-13.953125c0-2.585937-2.105468-4.6875-4.691406-4.6875h-19.308594zm0 0" fill="#3762cc"/><path d="m345.175781 334.53125h-82.933593c-1.308594 0-2.535157-.644531-3.285157-1.71875-.746093-1.078125-.917969-2.453125-.460937-3.679688.214844-.574218.320312-1.109374.320312-1.625v-13.953124c0-.519532-.105468-1.050782-.320312-1.625-.457032-1.230469-.285156-2.605469.460937-3.683594.75-1.074219 1.976563-1.714844 3.285157-1.714844h82.933593c1.0625 0 1.976563-.898438 2-1.960938l.167969-8.914062c.023438-1.132812.523438-2.207031 1.382812-2.949219.859376-.742187 1.984376-1.097656 3.121094-.945312.464844.058593.9375.105469 1.421875.105469h15.199219c.6875 0 1.402344-.070313 2.125-.210938 1.179688-.226562 2.410156.089844 3.332031.871094.921875.777344 1.445313 1.929687 1.421875 3.132812l-.183594 9.445313c-.304687 16.222656-13.761718 29.425781-29.988281 29.425781zm-78.359375-8h78.359375c11.898438 0 21.765625-9.679688 21.996094-21.578125l.09375-5.085937h-12l-.09375 4.855468c-.105469 5.40625-4.585937 9.808594-9.996094 9.808594h-78.359375zm0 0" fill="#3762cc"/></svg>