<svg id="Layer_6" enable-background="new 0 0 64 64" height="512" viewBox="0 0 64 64" width="512" xmlns="http://www.w3.org/2000/svg"><g><g><g><path d="m29.88 13.75c-.24 1.3-.8 4.11-1.85 7.26l-.03-.01s-4-1-8-4.01c0 0 1-15 18-15s21 10.01 21 17.01-1 12-10 15.99v-8s4 0 4-4-4-4-4-4 1-6-5-8c-4.97-1.66-10.62 2.86-14.12 2.76z" fill="#656d78"/></g><g><path d="m45 61.99h-16s1.47-14.68 10.06-18.88c1.44-.71 3.08-1.12 4.94-1.12 1.85 0 3.49.4 4.95 1.1 8.84 4.17 11.05 18.9 11.05 18.9z" fill="#fcd770"/></g><g><path d="m9.81 39.29-2.47-8.37-3.06-10.39.96-.28 4.8-1.42.96-.28 3.96 13.43 1.98 6.71-6.72 1.98z" fill="#aab2bd"/></g><g><path d="m8.91 14.99 1.13 3.84-4.8 1.42v-.01l-1.13-3.83z" fill="#ccd1d9"/></g><g><path d="m18.79 30.84 1.98 6.72-3.83 1.13-1.98-6.71z" fill="#ccd1d9"/></g><g><path d="m8.11 40.99 16 21h-11s-10-21-11-25 5-6 5-6l.23-.07 2.47 8.37z" fill="#f0d0b4"/></g><g><path d="m38.96 39.79c-1.13.2-1.96.2-1.96.2h-3.18c-2.65 0-4.82-2.17-4.82-4.82v-1.18h6c.55 0 1.05-.22 1.41-.58.37-.37.59-.87.59-1.42 0-1.1-.9-2-2-2h-6v-4h-3c.82-1.64 1.49-3.35 2.03-4.98 1.05-3.15 1.61-5.96 1.85-7.26 3.5.1 9.15-4.42 14.12-2.76 6 2 5 8 5 8s4 0 4 4-4 4-4 4v8 8l-.05.1c-1.46-.7-3.1-1.1-4.95-1.1-1.86 0-3.5.41-4.94 1.12l-.06-.12v-3z" fill="#f0d0b4"/></g></g><g><path d="m28.005 61.894-.11 1.1h33.267l-.172-1.148c-.107-.71-2.324-14.711-10.99-19.359v-6.865c9.214-4.319 10-10.087 10-16.622 0-4.224-1.587-18.006-22-18.006-17.73 0-18.987 15.774-18.998 15.934l-.036.541.434.325c2.943 2.212 5.856 3.371 7.344 3.87-.463 1.291-1.002 2.613-1.638 3.884l-.724 1.447h3.618v4h7c.552 0 1 .449 1 1s-.448 1-1 1h-7v2.177c0 3.21 2.612 5.823 5.822 5.823h3.178c.056 0 .432-.003 1-.059v1.588c-8.41 4.689-9.924 18.66-9.995 19.37zm30.789-.9h-12.881l-.913-9.993c.001-.094.062-2.307 2.316-3.059l-.633-1.897c-2.914.971-3.684 3.662-3.68 5.039l.901 9.91h-13.758c.641-4.065 3.589-18 13.854-18 10.249 0 13.926 13.865 14.794 18zm-37.739-44.468c.345-2.605 2.652-13.532 16.945-13.532 18.558 0 20 12.251 20 16.006 0 6.023-.608 10.651-8 14.408v-5.516c1.754-.342 4-1.621 4-4.898 0-3.229-2.181-4.519-3.922-4.883.045-2.56-1.079-6.505-5.762-8.066-3.374-1.125-6.838.231-9.894 1.427-2.52.987-4.695 1.836-5.71.821-.3-.31-1.186-1.412-.006-2.592l-1.414-1.414c-1.986 1.986-1.088 4.326 0 5.414.427.427.901.699 1.408.862-.255 1.269-.682 3.131-1.324 5.201-1.266-.426-3.76-1.41-6.321-3.238zm18.945 24.058c1.68-.422 3.662-1.28 4.832-3.036l-1.664-1.109c-1.675 2.512-6.125 2.555-6.168 2.555h-3.178c-2.107 0-3.822-1.715-3.822-3.823v-.177h5c1.654 0 3-1.346 3-3s-1.346-3-3-3h-5v-4h-2.425c1.77-4.005 2.72-8.114 3.141-10.29 1.367-.171 2.878-.76 4.435-1.369 2.739-1.072 5.846-2.29 8.532-1.392 5.093 1.697 4.363 6.679 4.33 6.887l-.186 1.151 1.166.013c.503.006 3.007.177 3.007 3s-2.504 2.994-3 3h-1v15.637c-1.223-.402-2.549-.637-4-.637-1.463 0-2.788.238-4 .645z"/><path d="m33.942 17.66-1.891.65c.045.135 1.016 2.891 5.019 2.891.63 0 1.337-.068 2.126-.227l-.393-1.961c-3.993.799-4.826-1.265-4.861-1.353z"/><path d="m22.017 38.235-2.545-8.633-3.837 1.131-3.959-13.429-.96.283-1.13-3.837-6.715 1.98 1.131 3.837-.959.283 3.082 10.454c-1.705.719-5.978 2.948-4.982 6.932 1.012 4.05 10.657 24.326 11.066 25.187l.271.57h13.651l-16.158-21.207zm-2.485-1.352-1.919.566-1.413-4.796 1.918-.566zm-14.178-19.799 2.877-.848.566 1.918-2.877.849zm4.968 2.706 3.959 13.429h.001l1.414 4.796-4.796 1.413-5.374-18.224zm3.423 41.204c-1.603-3.383-9.789-20.746-10.663-24.243-.583-2.332 2.229-3.895 3.613-4.511l1.994 6.763-1.902 1.902 15.306 20.089z"/><path d="m21.764 28.994h4.472v2h-4.472z" transform="matrix(.894 -.447 .447 .894 -10.88 13.9)"/><path d="m23 33.994h3v2h-3z"/><path d="m24 37.758h2v4.472h-2z" transform="matrix(.447 -.894 .894 .447 -21.952 44.469)"/></g></g></svg>