<svg height="512" viewBox="0 0 58 58" width="512" xmlns="http://www.w3.org/2000/svg"><g id="Page-1" fill="none" fill-rule="evenodd"><g id="018---Use-Inhaler" fill-rule="nonzero" transform="translate(-1 -1)"><path id="Shape" d="m27 53c1.74 1.74 2.77 2.72 3 4.91.0253441.280432-.0687143.5585539-.2590676.7660389-.1903532.2074851-.4593598.325104-.7409324.3239611h-27c-.2704971.0001218-.52950527-.1093432-.7179284-.303419-.18842312-.1940759-.29018654-.4562056-.2820716-.726581.29-6.75 3.44-10.86 4.7-13.33z" fill="#e64c3c"/><path id="Shape" d="m48.94 39.98-2.31.92c-.2452229.1006036-.5204699.0990998-.7645789-.0041771-.2441091-.1032769-.4368597-.2997721-.5354211-.5458229l-1.26-3.15c-.1984163-.5135268.0505195-1.0914134.56-1.3l2.35-.93 1.945 1.917z" fill="#84b5cb"/><path id="Shape" d="m58 18v4h-6v-4c0-.5522847.4477153-1 1-1h4c.5522847 0 1 .4477153 1 1z" fill="#a5a5a4"/><path id="Shape" d="m42.14 29.74c-.64.48-1.96.81-2.12 1.67-.0866877.441671-.0342811.899356.15 1.31.45.94.94 1.45.59 1.74-.34.31-1.29 1.01-1.29 1.01s.89 1.14.4 1.49c-.61.44-1.39.64-1.6 1.46-.3 1.19.65 1.73-.04 3.72-.2909827 1.1450496-1.4344152 1.855832-2.59 1.61-2.1687145-.5237002-4.3083441-1.1612498-6.41-1.91-.01-.01-.01 0-.01 0-.21-.08-.41-.14-.6-.21-.7551375.2844693-1.423572.7599536-1.94 1.38-.4686443.5613777-.8342786 1.2012378-1.08 1.89-.6634876 1.8295607-.6564006 3.8351739.02 5.66.2758315.9045501.7469248 1.7374976 1.38 2.44 0 0-15.25.86-21.3-8.36v-.01c.12-.23.22-.43.3-.63.87326246-1.8404922 1.43102908-3.814648 1.65-5.84.30249561-2.5574728-.08059671-5.1493858-1.11-7.51-1.68-3.84-5.45-5.92-5.54-11.85-.04317875-2.2344495.23294159-4.4636161.82-6.62.75825917-2.61478762 2.34868871-4.91090444 4.53-6.54 5.8-4.55 10.89-5.84 21.05-3.49 2.78.64 5.52 1.55 7.5 3.64 1.3483134 1.44587823 2.3893051 3.150247 3.06 5.01.3206889.9247363.5779522 1.8702624.77 2.83.36 1.55 1.49 3.14 1.36 4.02-.15 1.12-1.82 1.6-1.84 2.75.3220939 1.5296811.9293396 2.9850355 1.79 4.29 3.52 3.8 3.45 4.04 2.1 5.05z" fill="#fdd7ad"/><path id="Shape" d="m59 22v14.13c.0008587.8226105-.5035285 1.5613193-1.27 1.86l-7.34 2.94c-.5135268.1984163-1.0914134-.0505195-1.3-.56l-.15-.39-1.96-5.01-.07-.18c-.0983792-.246631-.0946309-.5222628.0104184-.7661274.1050494-.2438647.3027739-.4359375.5495816-.5338726l2.9-1.2c.380721-.1516273.6303967-.5201962.63-.93v-9.36c0-.5522847.4477153-1 1-1h6c.5522847 0 1 .4477153 1 1z" fill="#9fc9d3"/><path id="Shape" d="m6.835 14c-.12312438.0002703-.24521672-.0224524-.36-.067-.24781805-.0950775-.44766946-.2847789-.55552333-.5273094-.10785388-.2425306-.11486067-.5179904-.01947667-.7656906 2.02951478-5.19238502 7.0251183-8.61794173 12.6-8.64.5522847.00000001 1 .44771526 1 1s-.4477153.99999999-1 1c-4.7484215.01954273-9.00316363 2.93744268-10.732 7.36-.14882018.3856726-.5196106.6400197-.933.64z" fill="#f9c795"/><path id="Shape" d="m6.01 19c-.53666154.0004512-.97799706-.4227895-1-.959-.01-.18-.01-.36-.01-.541s0-.361.011-.541c.03762594-.5452197.49453008-.9661333 1.041-.959.55169253.0227299.98055446.4883003.958 1.04-.00666667.1526667-.01.306-.01.46s.003.307.009.459c.02313001.5517083-.40529711 1.0177403-.957 1.041z" fill="#f9c795"/><path id="Shape" d="m56 25c0 .5522847-.4477153 1-1 1h-4v-2h4c.5522847 0 1 .4477153 1 1z" fill="#84b5cb"/><path id="Shape" d="m28.62 41.63c-.7551375.2844693-1.423572.7599536-1.94 1.38l-.1-.03c-.78-.28-1.38-.49-1.66-.58-4.4-1.37-5.29-3.4-5.26-4.86.0071453-.3572656.2043468-.6835807.5173205-.8560255.3129737-.1724447.6941716-.1648208 1 .02.3058285.1848209.4898248.5187599.4826795.8760255-.02 1.09 1.35 2.13 3.87 2.92.3.09.91.31 1.72.59z" fill="#f9c795"/></g></g></svg>