<svg height="512" viewBox="0 0 58 58" width="512" xmlns="http://www.w3.org/2000/svg"><g id="031---Smoking-Causes-Death" fill="none" transform="translate(-1 -1)"><path id="Shape" d="m3.371 50.287c1.64.27 3.26-1.269 3.62-3.449s-.67-4.169-2.3-4.439c53.112 8.87 49.546 8.271 51.939 8.68 1.63.27 2.66 2.26 2.29 4.44s-1.98 3.73-3.6 3.45c-2.709-.453-48.247-8.069-51.949-8.682z" fill="#f9eab0"/><path id="Shape" d="m58.92 55.519c-.36 2.18-1.98 3.73-3.6 3.45l-12.26-2.049c1.3207875-.7902297 2.20556-2.1431943 2.4-3.67.04-.27.07-2.56.08-4.03l11.09 1.859c1.63.27 2.66 2.26 2.29 4.44z" fill="#f18d46"/><path id="Shape" d="m3.371 50.287c1.64.27 3.26-1.269 3.62-3.449s-.671-4.169-2.3-4.439-3.249 1.268-3.619 3.448.669 4.17 2.299 4.44z" fill="#e57e25"/><path id="Shape" d="m56.629 50.286-51.947 8.676c-1.629.28-3.244-1.265-3.6-3.444s.655-4.17 2.294-4.44l51.933-8.678c-1.63.27-2.66 2.26-2.3 4.44s1.98 3.716 3.62 3.446z" fill="#f5efca"/><path id="Shape" d="m56.629 50.286c-1.64.27-3.26-1.27-3.62-3.449s.67-4.17 2.3-4.44 3.249 1.27 3.619 3.45-.67 4.169-2.299 4.439z" fill="#e57e25"/><path id="Shape" d="m16.93 56.92-12.248 2.042c-1.62.28-3.244-1.274-3.6-3.444s.664-4.17 2.294-4.44l12.224-2.038c-2 2.137-1.243 6.539 1.33 7.88z" fill="#f18d46"/><circle id="Oval" cx="54" cy="54.998" fill="#fac176" r="1"/><path id="Shape" d="m46.72 25.99c.6386767 2.1520177.2090366 4.4797143-1.1558099 6.2619269-1.3648466 1.7822127-3.5000889 2.8037322-5.7441901 2.7480731-.7311819-.0283301-1.4022139.4030476-1.68 1.08-.186.434-.14.526-.14 2.92-.0032948 1.1032019-.8967981 1.9967052-2 2h-12c-1.1032019-.0032948-1.9967052-.8967981-2-2v-2.24c.0003417-.4721103-.1891122-.9245407-.5257537-1.2555402-.3366416-.3309996-.7922092-.5127802-1.2642463-.5044598-2.3395651.0729063-4.5605004-1.0293779-5.9171998-2.9367968s-1.6692789-4.3670688-.8328002-6.5532032c.221-.665.738-1.168.38-2.22-2.0227296-6.1616071-.36366-12.9372626 4.2769957-17.46729043 4.6406558-4.5300278 11.4543611-6.02516593 17.5653811-3.85438901s10.454638 7.62925672 11.1976232 14.07167944v.01c.2863803 2.4370042.0407326 4.9071286-.72 7.24-.372 1.117.195 1.532.56 2.7z" fill="#f9eab0"/><path id="Shape" d="m46.16 23.29c-.35 1.05.153 1.538.38 2.22-4.1785991 4.7604831-10.2057368 7.4897197-16.54 7.4897197s-12.3614009-2.7292366-16.54-7.4897197c.221-.665.738-1.168.38-2.22-2.0227296-6.1616071-.36366-12.9372626 4.2769957-17.46729043 4.6406558-4.5300278 11.4543611-6.02516593 17.5653811-3.85438901s10.454638 7.62925672 11.1976232 14.07167944v.01c.2863803 2.4370042.0407326 4.9071286-.72 7.24z" fill="#f5efca"/><g fill="#2c3e50"><path id="Shape" d="m27 38v3h-2v-3c0-.5522847.4477153-1 1-1s1 .4477153 1 1z"/><path id="Shape" d="m31 38v3h-2v-3c0-.5522847.4477153-1 1-1s1 .4477153 1 1z"/><path id="Shape" d="m35 38v3h-2v-3c0-.5522847.4477153-1 1-1s1 .4477153 1 1z"/><path id="Shape" d="m33 31.5c0 1.714-1.339 2.887-2.6 2.384-.6-.237-.773.116-1.4.116-1.2324358-.1564335-2.1179166-1.2632846-2-2.5-.1179166-1.2367154.7675642-2.3435665 2-2.5.619 0 .8.352 1.4.116 1.278-.509 2.6.694 2.6 2.384z"/><path id="Shape" d="m24.763 26.537-3.629.445c-1.678.206-3.134-1.412-3.134-3.482s1.456-3.688 3.134-3.482l3.629.445c1.3955785.3175824 2.3475646 1.6100195 2.237 3.037.108375 1.4263529-.8426702 2.7175127-2.237 3.037z"/><path id="Shape" d="m35.237 26.537 3.629.445c1.678.206 3.134-1.412 3.134-3.482s-1.456-3.688-3.134-3.482l-3.629.445c-1.3955785.3175824-2.3475646 1.6100195-2.237 3.037-.108375 1.4263529.8426702 2.7175127 2.237 3.037z"/></g><circle id="Oval" cx="6" cy="54.998" fill="#fac176" r="1"/><circle id="Oval" cx="10" cy="53.998" fill="#fac176" r="1"/></g></svg>