<svg height="512" viewBox="0 0 50 59" width="512" xmlns="http://www.w3.org/2000/svg"><g id="001---No-Smoking" fill="none"><path id="Shape" d="m42.6 45.44-14.03-14.03-5.66 5.66 14.12 14.12 2.97-2.19z" fill="#f5efca"/><path id="Shape" d="m42.6 45.44-2.6 3.56-2.97 2.19-9.11-9.11 5.66-5.66z" fill="#f18d46"/><path id="Shape" d="m10.67 13.52-5.73 5.57c-6.48477953 8.7190103-6.59488961 20.6284509-.27243004 29.4658719 6.32245954 8.8374211 17.62948334 12.5788264 27.97539574 9.2568387s17.361234-12.9465481 17.3570343-23.8127106c0-20.39-23.007-31.938-39.33-20.48zm-3.01 32.3c-4.93839638-7.2064905-4.88258734-16.7219317.14-23.87l5.75-5.55c7.0937633-4.6331333 16.2815284-4.5304767 23.27.26.1239061.0840981.2035949.2193052.2171527.3684407.0135577.1491355-.0404431.2964962-.1471527.4015593l-28.46 28.46c-.10506314.1067096-.25242383.1607104-.40155933.1471527-.14913551-.0135578-.2843426-.0932466-.36844067-.2171527zm19.79 9.04c-5.9564717.7041859-11.928681-1.1821582-16.4-5.18-.1010265-.0932544-.1601221-.2233482-.1638875-.3607839-.0037653-.1374357.0481185-.27057.1438875-.3692161l28.92-28.92c.0986461-.095769.2317804-.1476528.3692161-.1438875.1374357.0037654.2675295.062861.3607839.1638875 5.2103273 5.8440771 6.7341685 14.1026385 3.9525942 21.4213537-2.7815743 7.3187151-9.4059694 12.4804318-17.1825942 13.3886463z" fill="#e64c3c"/><path id="Shape" d="m25.74 28.58-17.75-17.74c-.37328148-.3790282-.88302121-.5924538-1.415-.5924538s-1.04171852.2134256-1.415.5924538l-2.82 2.82c-.37902819.3732815-.5924538.8830212-.5924538 1.415s.21342561 1.0417185.5924538 1.415l17.74 17.75z" fill="#f5efca"/><path id="Shape" d="m3 15.14c-.55228475 0-1-.4477153-1-1v-6.14c.00330612-2.76005315 2.23994685-4.99669388 5-5h2c.27614237 0 .5-.22385763.5-.5 0-1.38071187 1.1192881-2.5 2.5-2.5h5c.5522847 0 1 .44771525 1 1s-.4477153 1-1 1h-5c-.2761424 0-.5.22385763-.5.5 0 1.38071187-1.1192881 2.5-2.5 2.5h-2c-1.65685425 0-3 1.34314575-3 3v6.14c0 .5522847-.44771525 1-1 1z" fill="#95a5a5"/><path id="Shape" d="m7 11.3c-.55228475 0-1-.4477153-1-1v-.3c0-1.65685425 1.34314575-3 3-3h4c.5522847 0 1-.44771525 1-1v-1c0-.55228475.4477153-1 1-1s1 .44771525 1 1v1c0 1.65685425-1.3431458 3-3 3h-4c-.55228475 0-1 .44771525-1 1v.3c0 .5522847-.44771525 1-1 1z" fill="#95a5a5"/><path id="Shape" d="m10.37 13.22-5.65 5.65-2.38-2.38c-.37902819-.3732815-.5924538-.8830212-.5924538-1.415s.21342561-1.0417185.5924538-1.415l2.82-2.82c.37328148-.3790282.88302121-.5924538 1.415-.5924538s1.04171852.2134256 1.415.5924538z" fill="#f18d46"/></g></svg>