<svg height="512" viewBox="0 0 58 58" width="512" xmlns="http://www.w3.org/2000/svg"><g id="035---Put-Out-Cigarette" fill="none"><path id="Shape" d="m0 34v12c0 6.627 12.984 12 29 12s29-5.373 29-12v-12z" fill="#955ba5"/><path id="Shape" d="m31.94 22.06c14.64.61 26.06 5.72 26.06 11.94 0 6.075-10.9 11.1-25.051 11.893-.5295781.027035-.9459777.4627409-.949.993v.949c.0344887 1.6397323-1.2099254 3.0246023-2.844 3.165-.8223173.0428192-1.6260856-.2542453-2.2229029-.8215622-.5968173-.5673168-.9342112-1.3550072-.9330971-2.1784378v-1.114c-.0030223-.5302591-.4194219-.965965-.949-.993-14.151-.793-25.051-5.818-25.051-11.893 0-5.96 10.479-10.9 24.219-11.841z" fill="#894b9d"/><path id="Shape" d="m32 26.06c14.842.627 25 5.748 19.5 10.74h-.01c-2.96 2.64-9.98 4.613-18.54 5.09-.5310821.0301019-.9471547.4680731-.95 1 0 1.162.113 2.1-.73 3.07h-.01c-.8207913.940253-2.1379875 1.2740952-3.3075388.8382928-1.1695513-.4358023-1.9471006-1.5501961-1.9524612-2.7982928v-1.11c-.0028453-.5319269-.4189179-.9698981-.95-1-8.56-.477-15.58-2.45-18.54-5.09h-.01c-.87754797-.6757607-1.42359798-1.695054-1.5-2.8 0-4.08 9.16-7.44 21-7.94z" fill="#3d324c"/><path id="Shape" d="m33 15c-.5522847 0-1-.4477153-1-1 0-2.25-2-2.424-2-5.5-.0136551-1.21907486.4087374-2.40290895 1.191-3.338.5336133-.59228158.8227236-1.36491014.809-2.162 0-.55228475.4477153-1 1-1s1 .44771525 1 1c.0136551 1.21907486-.4087374 2.40290895-1.191 3.338-.5336133.59228158-.8227236 1.36491014-.809 2.162 0 2.25 2 2.424 2 5.5 0 .2652165-.1053568.5195704-.2928932.7071068s-.4418903.2928932-.7071068.2928932z" fill="#95a5a5"/><path id="Shape" d="m39 19c-.5522847 0-1-.4477153-1-1 0-2.25-2-2.424-2-5.5-.0136551-1.2190749.4087374-2.402909 1.191-3.338.5336133-.59228158.8227236-1.36491014.809-2.162 0-.55228475.4477153-1 1-1s1 .44771525 1 1c.0136551 1.21907486-.4087374 2.40290895-1.191 3.338-.5336133.5922816-.8227236 1.3649101-.809 2.162 0 2.25 2 2.424 2 5.5 0 .5522847-.4477153 1-1 1z" fill="#95a5a5"/><path id="Shape" d="m51.5 36.8h-.01c-4.73-2.61-11.64-4.37-19.49-4.73h-6c-7.85.36-14.76 2.12-19.49 4.73h-.01c-.87754797-.6757607-1.42359798-1.695054-1.5-2.8 0-4.08 9.16-7.44 21-7.94h6c14.842.627 25 5.748 19.5 10.74z" fill="#5d4c72"/><path id="Shape" d="m17 11v4.05c-.0000814 2.3711398 1.3962548 4.519922 3.563 5.483l3.656 1.626c1.0830115.481615 1.780931 1.5557292 1.781 2.741v11.1c-.0000774.3214436.1543712.6233283.4150947.8113424.2607234.1880141.5959327.2392338.9009053.1376576 1.475-.492 1.6-.589 2-.456l1.367.456c.3043443.0995901.6379754.0474037.897371-.1403663.2593957-.18777.4131776-.4884096.413629-.8086337v-11.12c.011-4.3-1.39-6.45-3.557-7.413l-3.656-1.625c-1.0833428-.4817623-1.7813261-1.5563666-1.781-2.742v-2.1z" fill="#f9eab0"/><path id="Shape" d="m23 1v11h-6v-11c0-.55228475.4477153-1 1-1h4c.5522847 0 1 .44771525 1 1z" fill="#f18d46"/><g fill="#fac176"><path id="Shape" d="m20 4c0 .55228475-.4477153 1-1 1h-2v-2h2c.5522847 0 1 .44771525 1 1z"/><path id="Shape" d="m23 7v2h-2c-.5522847 0-1-.44771525-1-1s.4477153-1 1-1z"/></g></g></svg>