<svg id="Capa_1" enable-background="new 0 0 512 512" height="512" viewBox="0 0 512 512" width="512" xmlns="http://www.w3.org/2000/svg"><g><path d="m286 76v-60h-30-30v60c0 41.499-29.414 78.398-69.946 87.729l7.266 59.736c36.929-6.914 69.844-27.627 92.681-58.286 20.728 27.817 49.014 47.139 81.826 55.854l15.088-57.993c-39.405-10.238-66.915-46.039-66.915-87.04z" fill="#fb9"/><path d="m337.826 221.034 15.088-57.993c-39.404-10.239-66.914-46.04-66.914-87.041v-60h-30v149.18c20.728 27.817 49.014 47.138 81.826 55.854z" fill="#ff9680"/><g><path d="m466 496c-90.981 0-165-74.019-165-165v-180c0-24.814 20.186-45 45-45 90.981 0 166 74.019 166 165v180c0 24.814-21.186 45-46 45z" fill="#f25a3c"/></g><g><path d="m406 346c-24.814 0-45-20.186-45-45s20.186-45 45-45 45 20.186 45 45h-30c0-8.276-6.724-15-15-15s-15 6.724-15 15 6.724 15 15 15z" fill="#d94141"/></g><path d="m211 151c0-3.924-.663-7.663-1.611-11.294l-19.321 2.224-9.987-33.452c-4.457-1.482-9.133-2.478-14.081-2.478-90.981 0-166 74.019-166 165v180c0 24.814 21.186 45 46 45 49.937 0 94.667-22.385 124.949-57.546l-19.949-18.263 38.055-7.313c13.883-24.159 21.945-52.07 21.945-81.878v-1.646l-30-15.22 30-15.079z" fill="#ff7f40"/><g fill="#f25a3c"><path d="m160.067 183.93c-9.756 13.008-22.026 23.069-35.735 30.196l-13.909-27.838-26.836 13.418 12.125 24.267c-11.162 2.093-22.762 2.622-34.581 1.002l-4.043 29.736c49.642 6.72 97.983-14.121 126.973-52.778 13.934-18.578 22.264-39.919 25.327-62.227-3.849-14.753-14.947-26.455-29.308-31.229 3.172 27.03-3.445 53.357-20.013 75.453z"/><path d="m121 390.191v-44.191h-30v34.189l-28.257-9.419-9.492 28.447 117.698 39.236c6.815-7.912 12.87-16.467 18.105-25.576z"/><path d="m126.728 277.973-17.402 24.434c30.346 21.619 66.363 30.582 101.675 26.948v-30.298c-29.186 3.765-59.144-3.202-84.273-21.084z"/></g><g><path d="m361 196h30v30h-30z" fill="#d94141"/></g><g><path d="m391 376h30v30h-30z" fill="#d94141"/></g><g><path d="m421 346h30v30h-30z" fill="#d94141"/></g></g></svg>