<svg id="Capa_1" enable-background="new 0 0 512 512" height="512" viewBox="0 0 512 512" width="512" xmlns="http://www.w3.org/2000/svg"><g><g><path d="m512 256c0 141.387-114.613 256-256 256s-256-114.613-256-256 114.613-256 256-256 256 114.613 256 256z" fill="#cbdffe"/><path d="m512 256c0 26.051-3.891 51.191-11.129 74.871-5.031 16.469-11.672 32.231-19.75 47.109-8.25 15.2-18 29.461-29.051 42.61-.582.691-1.16 1.379-1.75 2.058-46.941 54.704-116.59 89.352-194.32 89.352s-147.379-34.648-194.309-89.352c-.589-.687-1.179-1.378-1.75-2.07-11.062-13.137-20.812-27.398-29.05-42.598-3.289-6.031-6.332-12.21-9.121-18.531-14-31.629-21.77-66.629-21.77-103.449 0-46.219 12.25-89.57 33.68-127 44.121 77.07 127.16 129 222.32 129s178.211-51.93 222.32-129c21.43 37.43 33.68 80.781 33.68 127z" fill="#76a9fc"/><path d="m481.262 377.699c-7.16 13.223-15.434 25.742-24.723 37.43-8.437 10.633-17.719 20.57-27.719 29.723-45.539 41.699-106.211 67.148-172.82 67.148s-127.281-25.449-172.82-67.148c-10-9.153-19.282-19.09-27.719-29.723-9.289-11.688-17.563-24.207-24.723-37.43z" fill="#5783e3"/></g><g><path d="m278.123 139.333v-44.245h-22.123-22.123v44.245c0 30.602-21.691 57.813-51.58 64.694l5.358 44.051c27.232-5.099 51.504-20.373 68.345-42.981 15.285 20.513 36.144 34.761 60.34 41.188l11.126-42.765c-29.057-7.552-49.343-33.952-49.343-64.187z" fill="#ecbea6"/><path d="m316.34 246.285 11.126-42.765c-29.058-7.551-49.344-33.951-49.344-64.186v-44.246h-22.122v110.008c15.285 20.513 36.144 34.761 60.34 41.189z" fill="#de916b"/><g><path d="m410.859 449.05c-67.092 0-121.675-54.583-121.675-121.675v-132.735c0-18.299 14.885-33.184 33.184-33.184 67.092 0 122.412 54.583 122.412 121.675v132.736c0 18.298-15.623 33.183-33.921 33.183z" fill="#da5f2a"/></g><g><path d="m366.613 338.437c-18.299 0-33.184-14.885-33.184-33.184s14.885-33.184 33.184-33.184 33.184 14.885 33.184 33.184h-22.123c0-6.103-4.958-11.061-11.061-11.061s-11.061 4.958-11.061 11.061 4.958 11.061 11.061 11.061z" fill="#b03737"/></g><path d="m222.816 194.64c0-2.894-.489-5.651-1.188-8.328l-14.248 1.64-7.364-24.668c-3.286-1.092-6.735-1.827-10.383-1.827-67.092 0-122.412 54.583-122.412 121.675v132.736c0 18.299 15.623 33.184 33.921 33.184 36.824 0 69.81-16.507 92.14-42.436l-14.711-13.467 28.062-5.393c10.238-17.815 16.183-38.397 16.183-60.378v-1.214l-22.123-11.223 22.123-11.119z" fill="#e2835a"/><path d="m128.999 177.561c-36.775 21.013-61.779 60.464-61.779 105.569v132.736c0 18.299 15.623 33.184 33.921 33.184 9.587 0 18.911-1.128 27.857-3.241v-268.248z" fill="#eaa688"/><g fill="#da5f2a"><path d="m185.257 218.923c-7.194 9.592-16.242 17.012-26.352 22.267l-10.257-20.528-19.789 9.895 8.941 17.895c-8.231 1.543-16.785 1.934-25.501.739l-2.981 21.928c36.607 4.955 72.255-10.413 93.632-38.92 10.275-13.7 16.418-29.437 18.677-45.887-2.838-10.879-11.022-19.509-21.612-23.029 2.339 19.932-2.541 39.346-14.758 55.64z"/><path d="m156.448 371.024v-32.587h-22.123v25.212l-20.837-6.946-7 20.978 86.793 28.933c5.026-5.835 9.491-12.143 13.351-18.861z"/><path d="m160.672 288.272-12.833 18.018c22.378 15.943 48.938 22.552 74.977 19.872v-22.343c-21.522 2.778-43.613-2.36-62.144-15.547z"/></g><g><path d="m333.429 227.824h22.123v22.123h-22.123z" fill="#b03737"/></g><g><path d="m355.552 360.56h22.123v22.123h-22.123z" fill="#b03737"/></g><g><path d="m377.675 338.437h22.123v22.123h-22.123z" fill="#b03737"/></g></g><g fill="#fff"><path d="m116.336 108.667h1.524c6.754 0 12.226 5.472 12.226 12.226v1.528h8.715v-1.528c0-6.754 5.477-12.226 12.227-12.226h1.527v-8.715h-1.527c-6.75 0-12.227-5.477-12.227-12.227v-1.523h-8.715v1.523c0 6.75-5.472 12.227-12.226 12.227h-1.524z"/><path d="m237.891 49.285h1.524c6.754 0 12.226 5.472 12.226 12.226v1.528h8.715v-1.528c0-6.754 5.477-12.226 12.227-12.226h1.527v-8.715h-1.527c-6.75 0-12.227-5.477-12.227-12.227v-1.523h-8.715v1.523c0 6.75-5.472 12.227-12.226 12.227h-1.524z"/><path d="m357.961 108.667h1.524c6.754 0 12.226 5.472 12.226 12.226v1.528h8.715v-1.528c0-6.754 5.477-12.226 12.227-12.226h1.527v-8.715h-1.527c-6.75 0-12.227-5.477-12.227-12.227v-1.523h-8.715v1.523c0 6.75-5.472 12.227-12.226 12.227h-1.524z"/></g></g></svg>