<svg id="Icons" height="512" viewBox="0 0 60 60" width="512" xmlns="http://www.w3.org/2000/svg"><path d="m58 7.9v18.1h-15.92c-.22 0-.86-3.01-.92-3.22a40.027 40.027 0 0 1 -1.12-7.37c-.23-4.4.51-8.92 4.22-11.93 2.48-2 6.09-3.21 9.25-1.99a6.963 6.963 0 0 1 4.49 6.41z" fill="#ff9801"/><path d="m53.51 1.49a7.853 7.853 0 0 0 -4.226-.35 7.2 7.2 0 0 1 1.226.35 6.963 6.963 0 0 1 4.49 6.41v18.1h3v-18.1a6.963 6.963 0 0 0 -4.49-6.41z" fill="#f57c00"/><path d="m59 28v5a2.006 2.006 0 0 1 -2 2h-14a2.112 2.112 0 0 1 -.26-.02 2.005 2.005 0 0 1 -1.74-1.98v-5a2.006 2.006 0 0 1 2-2h14a2.006 2.006 0 0 1 2 2z" fill="#607d8b"/><path d="m57 26h-3a2.006 2.006 0 0 1 2 2v5a2.006 2.006 0 0 1 -2 2h3a2.006 2.006 0 0 0 2-2v-5a2.006 2.006 0 0 0 -2-2z" fill="#37474f"/><path d="m56.33 47.6c-1.26 5.05-4.16 9-9.29 10.53-5.32 1.59-10.85.66-16.22-.12-3.45-.5-9.3-1.08-12.74-1.67-3.27-.56-6.6-1.37-9.95-1.23h-2.31a2.01 2.01 0 0 1 -1.79-1.06l-2.82-5.4a1.857 1.857 0 0 1 .34-2.18l2.1-2.12.01-.01a1.618 1.618 0 0 1 -.1-.18 3.17 3.17 0 0 1 -.43-2.78 2.28 2.28 0 0 1 1.93-1.33 2.914 2.914 0 0 1 2.2.8c2.39 2.16 4.7 4.42 7.12 6.52 2.34 2.02 6.04 2.15 8.98 2.19a100.329 100.329 0 0 0 17.11-1.18 2.035 2.035 0 0 0 1.56-1.23c1.68-4.12.65-8.11.71-12.17a2.112 2.112 0 0 0 .26.02h13.57l.17 1.91a31.481 31.481 0 0 1 -.41 10.69z" fill="#ffe0b2"/><g fill="#dfc49c"><path d="m43 35a2.112 2.112 0 0 1 -.26-.02v.02z"/><path d="m4.26 40.85c2.39 2.16 4.7 4.42 7.12 6.52 2.34 2.02 6.04 2.15 8.98 2.19.8.013 1.6-.006 2.406-.012-2.832-.056-6.2-.29-8.386-2.178-2.42-2.1-4.73-4.36-7.12-6.52a2.914 2.914 0 0 0 -2.2-.8 2.442 2.442 0 0 0 -1.232.474 3.517 3.517 0 0 1 .432.326z"/><path d="m5.78 55.105c.014 0 .026.005.04.005h.765c-.268-.01-.536-.01-.805-.005z"/><path d="m56.74 36.91-.17-1.91h-3l.17 1.91a31.481 31.481 0 0 1 -.41 10.69c-1.26 5.05-4.16 9-9.29 10.53a21.257 21.257 0 0 1 -5.007.832 23.877 23.877 0 0 0 8.007-.832c5.13-1.53 8.03-5.48 9.29-10.53a31.481 31.481 0 0 0 .41-10.69z"/></g><path d="m39.36 44.68a1.585 1.585 0 0 1 -1.68 1.68l-7.22-.42a1.607 1.607 0 0 1 -1.04-.46l-6.93-6.93-2.26-2.27-1.23-1.22 9.06-9.06 1.22 1.23 2.27 2.26 2.26 2.26 2.27 2.27 2.26 2.26.14.14a1.607 1.607 0 0 1 .46 1.04z" fill="#ef314c" fill-rule="evenodd"/><path d="m38.94 37.46a1.607 1.607 0 0 0 -.46-1.04l-.14-.14-2.26-2.26-2.27-2.27-2.26-2.26-2.27-2.26-1.22-1.23-1.5 1.5 1.99 1.99 2.26 2.26 2.27 2.27 2.26 2.26.14.14a1.607 1.607 0 0 1 .46 1.04l.42 7.22a1.581 1.581 0 0 1 -.953 1.548l2.273.132a1.585 1.585 0 0 0 1.68-1.68z" fill="#bb193b" fill-rule="evenodd"/><path d="m28.06 26-9.06 9.06-2.8-2.8a5.466 5.466 0 0 0 -.47-2.17l.28-.28 3.4-3.4 3.4-3.4.28-.28a5.466 5.466 0 0 0 2.17.47z" fill="#0377bc" fill-rule="evenodd"/><path d="m23.09 22.73-.28.28-3.4 3.4-3.4 3.4-.28.28a5.319 5.319 0 0 0 -1.16-1.73 5.06 5.06 0 0 0 -1.63-1.12l7.3-7.3a5.06 5.06 0 0 0 1.12 1.63 5.319 5.319 0 0 0 1.73 1.16z" fill="#7f8e94" fill-rule="evenodd"/><path d="m43.5 55a4.487 4.487 0 0 1 -3.182-1.316 1 1 0 0 1 1.414-1.414 2.5 2.5 0 0 0 3.536-3.536 1 1 0 0 1 1.414-1.414 4.5 4.5 0 0 1 -3.182 7.68z" fill="#dfc49c"/><path d="m59 25.78v-17.88a7.987 7.987 0 0 0 -5.132-7.339c-3.779-1.468-7.768.147-10.235 2.146-3.39 2.743-4.893 6.915-4.6 12.753a40.651 40.651 0 0 0 1.154 7.553l.037.167c.279 1.244.478 2.092.678 2.677a2.987 2.987 0 0 0 -.902 2.143v5a3 3 0 0 0 1.754 2.721c.014.943.06 1.881.117 2.792.064 1.009.129 2.054.129 3.067a1 1 0 0 0 2 0c0-1.076-.067-2.152-.133-3.193-.049-.785-.088-1.588-.108-2.387h11.9l.09 1a30.361 30.361 0 0 1 -.385 10.357c-1.3 5.2-4.192 8.5-8.607 9.814-4.849 1.451-10.014.694-15.008-.038l-.782-.114c-1.421-.206-3.248-.426-5.148-.654-2.734-.328-5.562-.668-7.566-1.012-.65-.111-1.3-.232-1.956-.354a36.625 36.625 0 0 0 -8.163-.89h-2.314a1.007 1.007 0 0 1 -.9-.523l-2.822-5.4a.855.855 0 0 1 .166-1.009l1.208-1.219 3.119 4.642a1 1 0 0 0 1.658-1.12l-3.264-4.833-.056-.095c-.158-.273-.33-.567-.487-.863-.475-.889-.594-1.46-.4-1.9a1.292 1.292 0 0 1 1.117-.747 1.944 1.944 0 0 1 1.43.547c.953.861 1.893 1.738 2.832 2.614 1.4 1.3 2.839 2.648 4.306 3.921 2.5 2.158 6.123 2.385 9.615 2.433a100.459 100.459 0 0 0 10.435-.357 1 1 0 0 0 .909-1.083.987.987 0 0 0 -1.086-.917 98.148 98.148 0 0 1 -10.229.356c-3.128-.042-6.349-.228-8.339-1.945-1.437-1.248-2.867-2.581-4.249-3.871-.948-.884-1.895-1.768-2.857-2.637a3.9 3.9 0 0 0 -2.966-1.052 3.265 3.265 0 0 0 -2.748 1.922 3.747 3.747 0 0 0 .225 3.174l-1.601 1.623a2.857 2.857 0 0 0 -.512 3.343l2.82 5.4a3 3 0 0 0 2.676 1.6h2.351a35.582 35.582 0 0 1 7.757.857c.663.124 1.324.246 1.983.359 2.054.353 4.907.7 7.666 1.027 1.881.226 3.691.443 5.1.648l.779.113a63.268 63.268 0 0 0 9.12.887 23.376 23.376 0 0 0 6.751-.912c5.066-1.511 8.515-5.4 9.974-11.245a32.078 32.078 0 0 0 .436-11.022l-.08-.9a3 3 0 0 0 2.343-2.925v-5a2.985 2.985 0 0 0 -1-2.22zm-16.266-.78c-.109-.376-.283-1.051-.552-2.257l-.046-.2a38.674 38.674 0 0 1 -1.1-7.184c-.266-5.226.959-8.752 3.856-11.1 1.942-1.572 5.27-2.994 8.252-1.836a5.974 5.974 0 0 1 3.856 5.477v17.1zm15.266 8a1 1 0 0 1 -1 1h-14a1 1 0 0 1 -1-1v-5a1 1 0 0 1 1-1h14a1 1 0 0 1 1 1z"/><path d="m8 23a7.93 7.93 0 0 0 4.9-1.685l2.275 2.275-2.475 2.473a6.626 6.626 0 0 0 -2.1-.346 6.6 6.6 0 1 0 6.281 8.638l1.4 1.4.007.01.01.007 10.414 10.411a2.6 2.6 0 0 0 1.69.755l7.216.425c.051 0 .1.005.153.005a2.593 2.593 0 0 0 .987-.2l3.535 3.535a1 1 0 0 0 1.414-1.414l-3.54-3.54a2.575 2.575 0 0 0 .2-1.134l-.428-7.215a2.606 2.606 0 0 0 -.754-1.69l-.943-.942v-.008h-.008l-2.987-2.987v-.008l-.008-.005-2.987-2.987v-.008l-.008-.005-3.47-3.46-.007-.01-.01-.007-1.4-1.4a6.611 6.611 0 1 0 -8.294-4.183l-2.473 2.476-2.275-2.276a7.995 7.995 0 0 0 -6.315-12.9 8 8 0 1 0 0 16zm5.859 12.576a4.6 4.6 0 1 1 1.349-3.255 4.609 4.609 0 0 1 -1.349 3.255zm10.967-11.393 1.818 1.817-3.114 3.116-2.706-2.706 2.509-2.51a6.556 6.556 0 0 0 1.493.283zm-5.416 3.641 2.706 2.706-3.116 3.114-1.819-1.818a6.556 6.556 0 0 0 -.282-1.493zm18.326 17.543-7.217-.425a.6.6 0 0 1 -.393-.173l-9.71-9.711 7.642-7.642 2.056 2.056-1.821 1.821a1 1 0 1 0 1.414 1.414l1.821-1.821 1.586 1.586-1.821 1.821a1 1 0 1 0 1.414 1.414l1.821-1.821 1.586 1.586-1.821 1.821a1 1 0 1 0 1.414 1.414l1.821-1.821.241.24a.6.6 0 0 1 .173.394l.425 7.217a.592.592 0 0 1 -.175.455.57.57 0 0 1 -.456.175zm-15.67-31.019a4.6 4.6 0 1 1 0 6.511 4.59 4.59 0 0 1 0-6.511zm-1.414 7.925a6.6 6.6 0 0 0 .8.677l-5.502 5.506a6.6 6.6 0 0 0 -.677-.8 6.7 6.7 0 0 0 -.718-.613l5.484-5.484a6.7 6.7 0 0 0 .613.714zm-16.895-11.516a6 6 0 1 1 -1.757 4.243 5.963 5.963 0 0 1 1.757-4.243z"/></svg>