<?xml version="1.0" ?><svg viewBox="0 0 512 512" xmlns="http://www.w3.org/2000/svg"><defs><style>.cls-1{fill:#231f20;}</style></defs><title/><g id="Cough"><path class="cls-1" d="M224.67,224.37a4.93,4.93,0,0,1-2.62-.75l-16.56-10.18a5,5,0,0,1-.51-8.16L221.54,192a5,5,0,1,1,6.26,7.79l-11,8.88,10.52,6.48a5,5,0,0,1-2.62,9.26Z"/><path class="cls-1" d="M409.82,433.22a5,5,0,0,1-2-.41,149.45,149.45,0,0,1-50.21-35.26,159.67,159.67,0,0,1-37.31-67.48,5,5,0,0,1,1.36-4.9c2.4-2.31,4.8-4.73,7.14-7.18a5,5,0,1,1,7.24,6.89c-1.74,1.83-3.51,3.64-5.3,5.4a149.33,149.33,0,0,0,34.16,60.43,139.69,139.69,0,0,0,46.87,32.92,5,5,0,0,1-2,9.59Z"/><path class="cls-1" d="M221.28,454.38a5,5,0,0,1-1.8-9.66c3.24-1.25,31.85-13.12,39.86-44.6,4.58-18,.19-33.73-3.36-42.42-8.67,3.14-27.19,7.56-44.84-3.11-12.81-7.74-18.56-19.55-20.84-25.9a5,5,0,0,1,2.87-6.34c16.57-6.51,24.15-15.77,23.57-18.92-.72-3.87-14.33-11.08-37.47-7.49a5,5,0,0,1-5.36-3L167,277c-7.08-1.2-15.29-3.76-17.31-10.62s3.67-12.09,9.72-17.52c5.74-5.16,12.89-11.57,16.55-21.13,3.81-9.93,2.8-15.73.1-31.24l-.36-2c-4.18-24.1,2.29-47.37,8.45-62.64a5,5,0,1,1,9.28,3.74c-5.68,14.07-11.65,35.41-7.87,57.19l.35,2c2.79,16,4.18,24-.61,36.53-4.53,11.81-13,19.43-19.22,25-2.65,2.38-6.65,6-6.79,7.31h0s1.26,2.49,11.86,3.9a5,5,0,0,1,3.93,3l6.5,15c23-2.57,42.81,4.31,45,16.07,2,10.59-10.88,21.42-25,28A39.29,39.29,0,0,0,216.31,346c18.5,11.18,39.13,1.15,40,.72A5,5,0,0,1,263,349c3.9,7.85,12.31,28.81,6,53.58-9.24,36.35-42.22,50-45.95,51.47A5.16,5.16,0,0,1,221.28,454.38Z"/><path class="cls-1" d="M341.63,329.82h-.28a20.66,20.66,0,0,1-11.85-4.33,5,5,0,0,1,5.89-8.09,11,11,0,0,0,6.12,2.43h.11c12.71,0,26.4-37.06,33-54.89,21.95-59.4,34-92.12,30.91-107.57-12.91-63.84-96.83-87.08-100.4-88-11.09-3-50.32-11.3-89.37,6.73-11.3,5.21-37.75,17.42-37.48,33.52.15,8.39,7.44,15.58,13.54,20.14a5,5,0,1,1-6,8c-11.31-8.46-17.38-18.13-17.54-28C167.89,87.12,198.48,73,211.55,67c40.95-18.91,80.89-11.41,96.16-7.31a208.92,208.92,0,0,1,50.5,22.26c31.56,19.38,51.3,44.78,57.1,73.46C419,173.61,408,203.31,384,268.4,372,300.77,359.78,329.82,341.63,329.82Z"/><path class="cls-1" d="M332.44,326.43a5,5,0,0,1-2.94-.95c-12.9-9.39-23.94-33.62-30.26-66.48a5,5,0,0,1,2.16-5.11C317.18,243.47,320,230,317.77,226.57c-1.67-2.55-9.73-4.12-20.52-.43a5,5,0,0,1-6.59-4.2c-1.78-16.31-6.92-28.94-15.28-37.54-8.63-8.86-18.18-11.23-30.27-14.23-10.53-2.6-22.46-5.56-35.91-13.54a109.19,109.19,0,0,1-24.06-19.5,5,5,0,0,1,7.32-6.82A99.1,99.1,0,0,0,214.3,148c12.19,7.23,22.88,9.88,33.21,12.44,12.56,3.11,24.41,6.05,35,16.95,8.9,9.14,14.69,21.78,17.27,37.61,11.89-2.64,22.08-.43,26.33,6.06,5.83,8.93.38,26.69-16.45,39.19,5.78,28,15.52,49.71,25.7,57.11a5,5,0,0,1-2.95,9Z"/><path class="cls-1" d="M147.72,307.42a5,5,0,0,1-.26-10L156,297a5,5,0,1,1,.53,10l-8.49.45Z"/><path class="cls-1" d="M99,310a5,5,0,0,1-.26-10l8.49-.45a5,5,0,0,1,.53,10l-8.49.45Z"/><path class="cls-1" d="M156.15,333.06a5,5,0,0,1-1.91-9.62l7.85-3.24a5,5,0,1,1,3.82,9.24l-7.85,3.24A5,5,0,0,1,156.15,333.06Z"/><path class="cls-1" d="M126.33,345.39a5,5,0,0,1-1.91-9.63l10.34-4.27a5,5,0,1,1,3.82,9.24L128.24,345A5.2,5.2,0,0,1,126.33,345.39Z"/><path class="cls-1" d="M99,356.68a5,5,0,0,1-1.91-9.62l7.85-3.25a5,5,0,1,1,3.82,9.24l-7.86,3.25A4.92,4.92,0,0,1,99,356.68Z"/><path class="cls-1" d="M169.54,358.48a5,5,0,0,1-3.62-8.45l5.85-6.16a5,5,0,0,1,7.25,6.89l-5.85,6.16A5,5,0,0,1,169.54,358.48Z"/><path class="cls-1" d="M136.89,392.85a5,5,0,0,1-3.62-8.45l5.85-6.16a5,5,0,0,1,7.25,6.89l-5.85,6.16A5,5,0,0,1,136.89,392.85Z"/></g></svg>