<svg id="Capa_1" enable-background="new 0 0 492.686 492.686" height="512" viewBox="0 0 492.686 492.686" width="512" xmlns="http://www.w3.org/2000/svg"><g><path d="m404.615 223.269s16.292-40.166 16.292-61.84v-47.269c0-49.392-40.04-89.432-89.432-89.432h-93.308c-8.528 0-16.088-5.486-18.732-13.594l-2.26-6.931c-1.509-4.628-7.569-5.702-10.577-1.874l-4.115 5.237c-12.206 15.535-18.841 34.72-18.841 54.477v14.427c0 21.733 3.407 43.332 10.098 64.009l40.289 82.79 118.281 31.319 39.396-12.678z" fill="#cbbfbb"/><path d="m389.91 400.216-32.39-18.91c-3.22-1.88-5.21-5.34-5.21-9.08v-63.58l-.2-17.97-87.69 5.34 2.29 57.3v18.91c0 3.74-1.98 7.2-5.21 9.08l-32.39 18.91-7.843 9.563 88.242 50.02 82.196-47.55z" fill="#fbe5c6"/><path d="m352.11 290.676-69.401 4.226v42.578h-16.632l.633 15.836v18.91c0 3.74-1.98 7.2-5.21 9.08l-32.39 18.91-7.843 9.563 18.502 10.488 11.868-6.929 32.39-18.91c3.23-1.88 5.21-5.34 5.21-9.08 0-7.016 4.874-13.055 11.713-14.622 15.952-3.655 30.495-11.89 42.031-24.014l9.328-9.803v-28.263z" fill="#f8d3aa"/><path d="m356.994 185.586-.405 35.265c-.036 3.095 3.597 4.784 5.94 2.763l14.86-12.814c2.99-2.578 6.807-3.997 10.755-3.997 9.096 0 16.47 7.37 16.47 16.466v21.207c0 19.823-16.069 35.892-35.892 35.892h-9.29l.048 14.97c.01 3.211-1.219 6.302-3.433 8.628l-27.556 28.96c-11.719 12.317-27.843 19.486-44.838 19.938l-68.85 1.831c-4.972.132-9.515-2.801-11.441-7.386l-8.831-21.026c-1.555-3.701.119-7.968 3.775-9.625l22.844-10.355c2.994-1.357 4.996-4.256 5.204-7.537l1.279-20.15c.32-5.045-3.623-9.342-8.677-9.455l-29.658-.662c-3.277-.073-5.896-2.751-5.896-6.029v-8.435h-13.708c-4.911 0-8.893-3.982-8.893-8.893v-8.83c0-2.174.797-4.274 2.239-5.9l30.869-34.809-.172-55.125c0-9.099 10.178-14.492 17.707-9.383l5.006 3.397c36.616 24.849 78.976 39.925 123.058 43.796l11.815 1.038c3.238.285 5.708 3.013 5.671 6.26z" fill="#fbe5c6"/><g><path d="m196.14 143.778 5.232 4.163c38.272 30.45 98.475 50.723 146.004 57.487l9.375 1.334.243-21.177c.037-3.247-2.433-5.975-5.668-6.259l-11.814-1.038c-44.082-3.871-86.442-18.947-123.058-43.796l-5.006-3.397c-7.529-5.11-17.707.284-17.707 9.383l.006 1.801c.821.392 1.624.887 2.393 1.499z" fill="#f8d3aa"/></g><g><path d="m375.22 258.431c-4.143 0-7.5-3.357-7.5-7.5v-7.469c0-4.143 3.357-7.5 7.5-7.5s7.5 3.357 7.5 7.5v7.469c0 4.143-3.358 7.5-7.5 7.5z" fill="#f8d3aa"/></g><g fill="#9de5d1"><path d="m112.208 227.926c5.266 2.041 11.071 11.534 14.404 17.744 1.58 2.944.16 6.61-2.992 7.721-6.647 2.342-17.333 5.446-22.599 3.405-7.972-3.089-11.931-12.056-8.842-20.028 3.09-7.973 12.057-11.932 20.029-8.842z"/><path d="m112.208 362.529c5.266-2.041 11.071-11.534 14.404-17.744 1.58-2.944.16-6.61-2.992-7.721-6.647-2.342-17.333-5.446-22.599-3.405-7.972 3.089-11.931 12.056-8.842 20.028 3.09 7.972 12.057 11.931 20.029 8.842z"/><path d="m58.322 292.359c2.264 1.92 2.264 5.401 0 7.321-5.229 4.435-14.25 11.322-19.86 11.322-8.275 0-14.982-6.708-14.982-14.982s6.708-14.982 14.982-14.982c5.609 0 14.631 6.886 19.86 11.321z"/></g><g><path d="m168.571 303.52h-13.982c-4.143 0-7.5-3.357-7.5-7.5s3.357-7.5 7.5-7.5h13.982c4.143 0 7.5 3.357 7.5 7.5s-3.357 7.5-7.5 7.5z" fill="#b3e5ee"/></g><g><path d="m109.196 303.52h-8.454c-4.143 0-7.5-3.357-7.5-7.5s3.357-7.5 7.5-7.5h8.454c4.143 0 7.5 3.357 7.5 7.5s-3.357 7.5-7.5 7.5z" fill="#b3e5ee"/></g><g><path d="m60.018 245.643c-.889 0-1.792-.159-2.672-.495l-13.124-5.009c-3.87-1.477-5.811-5.812-4.333-9.681 1.477-3.87 5.809-5.812 9.681-4.333l13.124 5.009c3.87 1.477 5.811 5.812 4.333 9.681-1.141 2.99-3.989 4.828-7.009 4.828z" fill="#b3e5ee"/></g><g><path d="m46.898 366.41c-3.021 0-5.868-1.838-7.009-4.828-1.478-3.869.463-8.204 4.333-9.681l13.124-5.009c3.872-1.478 8.204.463 9.681 4.333 1.478 3.869-.463 8.204-4.333 9.681l-13.124 5.009c-.88.336-1.784.495-2.672.495z" fill="#b3e5ee"/></g><g id="XMLID_103_"><g><path d="m466.28 471.376 2.807 14.039c.752 3.762-2.125 7.271-5.961 7.271h-307.231c-3.836 0-6.713-3.509-5.961-7.271l2.807-14.039c3.83-19.14 15.67-35.72 32.52-45.56l43.85-25.6.53.9 20.43 12.24c36.6 21.91 82.29 21.91 118.89 0l20.95-13.14 43.85 25.6c16.859 9.84 28.689 26.42 32.519 45.56z" fill="#b6ecdd"/></g></g><path d="m175.268 484.499c3.83-19.14 15.67-35.72 32.52-45.56l43.057-25.137c-.257-.151-.518-.292-.775-.445l-20.43-12.24-.53-.9-43.85 25.6c-16.85 9.84-28.69 26.42-32.52 45.56l-2.806 14.04c-.752 3.761 2.125 7.271 5.961 7.271h17.736z" fill="#94e3cd"/></g></svg>