<svg height="512pt" viewBox="-121 0 512 512" width="512pt" xmlns="http://www.w3.org/2000/svg"><path d="m60 30h150v121h-150zm0 0" fill="#f4d7af"/><path d="m135 30h75v121h-75zm0 0" fill="#dabba6"/><path d="m270 196v45l-41.398438 30h-187.203124l-41.398438-60v-15c0-41.398438 33.601562-75 75-75h120c41.398438 0 75 33.601562 75 75zm0 0" fill="#faecd8"/><path d="m270 196v45l-41.398438 30h-93.601562v-150h60c41.398438 0 75 33.601562 75 75zm0 0" fill="#f4d7af"/><path d="m270 241v256c0 8.398438-6.597656 15-15 15h-240c-8.402344 0-15-6.601562-15-15v-286h71.398438c21.902343 0 43.800781 4.5 63.601562 13.800781 2.101562.597657 4.5 1.5 6.597656 2.699219 17.703125 9 37.203125 13.5 57.003906 13.5zm0 0" fill="#e0f4ff"/><path d="m270 241v256c0 8.398438-6.597656 15-15 15h-120v-287.199219c2.101562.597657 4.5 1.5 6.597656 2.699219 17.703125 9 37.203125 13.5 57.003906 13.5zm0 0" fill="#bbdcff"/><path d="m210 376c0 8.285156-6.714844 15-15 15s-15-6.714844-15-15 6.714844-15 15-15 15 6.714844 15 15zm0 0" fill="#9abadb"/><path d="m150 436c0 8.398438-6.597656 15-15 15s-15-6.601562-15-15c0-8.402344 6.597656-15 15-15s15 6.597656 15 15zm0 0" fill="#bbdcff"/><path d="m225 0h-180c-8.402344 0-15 6.597656-15 15v31c0 8.398438 6.597656 15 15 15h180c8.402344 0 15-6.601562 15-15v-31c0-8.402344-6.597656-15-15-15zm0 0" fill="#4bb9ec"/><path d="m105 391c-24.8125 0-45-20.1875-45-45s20.1875-45 45-45 45 20.1875 45 45-20.1875 45-45 45zm0 0" fill="#bbdcff"/><path d="m225 61h-90v-61h90c8.402344 0 15 6.597656 15 15v31c0 8.398438-6.597656 15-15 15zm0 0" fill="#0095ff"/><path d="m150 436c0 8.398438-6.597656 15-15 15v-30c8.402344 0 15 6.597656 15 15zm0 0" fill="#9abadb"/></svg>