<svg height="512" viewBox="0 0 64 64" width="512" xmlns="http://www.w3.org/2000/svg"><g id="flat"><path d="m3 3h38v30h-38z" fill="#394d5c"/><path d="m7 7h30v22h-30z" fill="#aabece"/><path d="m33 29h-22l4-22h14z" fill="#f4f4e6"/><path d="m52 41c-4.971 0-7.047 3.047-9 5h-12v15h30v-13c0-2.761-4.029-7-9-7z" fill="#eb8cb3"/><path d="m29 61v-15h-20l-4 4v11z" fill="#ffd782"/><path d="m42 55h6v-4a3 3 0 0 1 3-3 3 3 0 0 1 3 3v10h-12z" fill="#ffd782"/><path d="m9 46h8s0 5-7 5c7 0 7 10 7 10h-12v-11a4 4 0 0 1 4-4z" fill="#394d5c"/><path d="m22.555 53.832-1.11-1.664c2.555-1.703 2.555-4.284 2.555-6.168h2c0 2.07 0 5.535-3.445 7.832z" fill="#394d5c"/><path d="m37 55h5v2h-5z" fill="#db527d"/><path d="m18 50h2v2h-2z" fill="#394d5c"/><path d="m12 33h20v4h-20z" fill="#7d8d9c"/><path d="m8 37h28v4h-28z" fill="#394d5c"/><path d="m25 15a3 3 0 0 0 -3 3c0 .523-.794.991-3 0-3.063-1.375-4.16 1.659-3 3a4.763 4.763 0 0 0 4 2c4 0 5-2 5-2a3 3 0 0 0 0-6z" fill="#f9bb4b"/><path d="m48 35h8v4h-8z" fill="#50b4f8"/><path d="m43 30h-2v-2h2a1 1 0 0 0 1-1v-8a3 3 0 0 1 3-3h3a3 3 0 0 1 3 3v7h-2v-7a1 1 0 0 0 -1-1h-3a1 1 0 0 0 -1 1v8a3 3 0 0 1 -3 3z" fill="#50b4f8"/><path d="m55 32v-5a3 3 0 0 0 -3-3 3 3 0 0 0 -3 3v5l-1 3h8z" fill="#edecd6"/></g></svg>