<svg id="Capa_1" enable-background="new 0 0 496.798 496.798" height="512" viewBox="0 0 496.798 496.798" width="512" xmlns="http://www.w3.org/2000/svg"><g><path d="m426.491 266.178v-236.415c0-16.438-13.326-29.763-29.763-29.763-16.438 0-29.763 13.325-29.763 29.763v236.415c-11.639 8.941-19.149 22.992-19.149 38.803 0 27.013 21.899 48.912 48.912 48.912s48.912-21.898 48.912-48.912c-.001-15.811-7.51-29.861-19.149-38.803z" fill="#f9f3f1"/><path d="m313.312 195.13 4.684-74.48c4.047-64.35-47.053-118.765-111.53-118.765h-20.706-48.326c-28.544 0-53.677 18.806-61.73 46.19l-1.254 4.265c-14.803 9.516-23.31 26.287-22.244 43.852l6.003 98.938 1.275 24.024h252.017z" fill="#cdbfba"/><path d="m212.214 368.071 68.718 39.081c21.928 12.471 35.472 35.755 35.472 60.982v18.578c0 5.571-4.516 10.087-10.087 10.087h-244.115c-5.571 0-10.087-4.516-10.087-10.087v-18.578c0-25.226 13.544-48.511 35.472-60.982l68.718-39.081 15.574-8.657h27.18z" fill="#fef0ae"/><path d="m184.26 359.414h-12.38l-15.574 8.657-68.718 39.081c-21.928 12.471-35.472 35.755-35.472 60.981v18.578c0 5.571 4.516 10.086 10.087 10.086h26.083v-11.709c0-25.227 13.544-48.51 35.472-60.982l60.503-34.409v-30.283z" fill="#fee97d"/><g fill="#ffcebf"><path d="m302.378 244.658h-30.416v-51.009h30.416c9.379 0 16.983 7.604 16.983 16.983v17.043c0 9.38-7.604 16.983-16.983 16.983z"/><path d="m68.142 244.658h30.416v-51.009h-30.416c-9.379 0-16.983 7.604-16.983 16.983v17.043c0 9.38 7.604 16.983 16.983 16.983z"/><path d="m213.089 361.003c0 15.922-12.907 28.829-28.829 28.829s-28.829-12.907-28.829-28.829v-75.859h57.658z"/></g><g><g id="XMLID_429_"><g><path d="m285.963 136.696v93.34c0 46.61-26.82 89.07-68.91 109.1l-10.94 5.21c-13.19 6.28-28.51 6.28-41.71 0l-10.93-5.21c-42.1-20.03-68.92-62.49-68.92-109.1v-93.34c0-4.88 3.96-8.84 8.84-8.84h183.73c4.88 0 8.84 3.96 8.84 8.84z" fill="#ffdfcf"/></g></g><path d="m185.046 196.867c19.192 0 38.718-1.479 58.032-4.394 10.037-1.513 18.117-9.207 20.105-19.146 3.017-15.078 3.998-30.299 2.96-45.471h-161.53c-1.047 15.491-.134 30.687 2.744 45.386 1.952 9.965 10.017 17.693 20.066 19.23 19.045 2.917 38.432 4.395 57.623 4.395z" fill="#ffcebf"/><path d="m240.097 172.697c-37.002 5.585-73.547 5.533-109.647.007-1.731-.265-3.129-1.587-3.465-3.305-3.742-19.11-3.74-38.968.006-59.574.33-1.817 1.839-3.199 3.675-3.393 36.601-3.879 73.03-3.917 109.281.001 1.805.195 3.296 1.537 3.651 3.318 3.962 19.885 3.953 39.769-.027 59.654-.343 1.713-1.744 3.031-3.474 3.292z" fill="#a6e7f0"/><path d="m159.894 104.159c-9.731.486-19.474 1.238-29.229 2.272-1.836.195-3.345 1.577-3.675 3.394-3.745 20.606-3.747 40.464-.006 59.574.336 1.718 1.735 3.04 3.465 3.305 9.772 1.496 19.579 2.577 29.417 3.267-3.344-23.084-3.335-47.022.028-71.812z" fill="#6bd9e7"/><g><g><path d="m182.811 85.717c-1.871 0-3.745-.696-5.2-2.096-2.984-2.872-3.076-7.62-.204-10.604l7.063-7.339c.822-.854.88-1.833.841-2.341s-.245-1.467-1.188-2.187l-2.536-1.936c-4.465-3.407-7.051-8.583-7.095-14.2-.044-5.618 2.461-10.834 6.874-14.312l3.752-2.956c3.254-2.564 7.969-2.006 10.533 1.249 2.563 3.253 2.004 7.969-1.249 10.532l-3.751 2.956c-1.019.803-1.163 1.856-1.159 2.413.004.556.166 1.606 1.196 2.394l2.537 1.936c4.084 3.117 6.651 7.844 7.043 12.966.392 5.123-1.427 10.185-4.989 13.886l-7.063 7.339c-1.473 1.531-3.437 2.3-5.405 2.3z" fill="#dcf5f8"/></g></g><g><g><path d="m139.846 85.717c-1.871 0-3.745-.696-5.2-2.096-2.984-2.872-3.076-7.62-.204-10.604l7.063-7.339c.822-.854.879-1.833.841-2.341-.039-.508-.245-1.467-1.188-2.187l-2.536-1.936c-4.465-3.408-7.051-8.584-7.095-14.201s2.461-10.833 6.874-14.311l3.752-2.956c3.254-2.564 7.969-2.006 10.533 1.249 2.563 3.253 2.004 7.969-1.249 10.532l-3.751 2.956c-1.018.803-1.163 1.856-1.159 2.412.004.557.166 1.607 1.196 2.395l2.536 1.936c4.084 3.117 6.651 7.844 7.043 12.966.392 5.123-1.426 10.184-4.988 13.886l-7.063 7.339c-1.472 1.531-3.437 2.3-5.405 2.3z" fill="#dcf5f8"/></g></g><g><g><path d="m222.721 85.717c-1.871 0-3.745-.696-5.2-2.096-2.984-2.872-3.076-7.62-.204-10.604l7.063-7.339c.822-.854.879-1.833.841-2.341-.039-.508-.245-1.467-1.188-2.187l-2.536-1.936c-4.465-3.407-7.052-8.583-7.095-14.2-.044-5.618 2.461-10.834 6.874-14.312l3.752-2.956c3.254-2.564 7.968-2.006 10.533 1.249 2.563 3.253 2.004 7.969-1.249 10.532l-3.751 2.956c-1.019.803-1.163 1.856-1.159 2.413.004.556.166 1.606 1.196 2.394l2.537 1.936c4.084 3.117 6.651 7.844 7.043 12.966.392 5.123-1.426 10.184-4.988 13.886l-7.063 7.339c-1.473 1.531-3.438 2.3-5.406 2.3z" fill="#dcf5f8"/></g></g><circle cx="396.728" cy="304.982" fill="#f37c7c" r="19.838"/><g><path d="m396.728 262.775c-4.143 0-7.5-3.357-7.5-7.5v-13.237c0-4.143 3.357-7.5 7.5-7.5s7.5 3.357 7.5 7.5v13.237c0 4.142-3.358 7.5-7.5 7.5z" fill="#f37c7c"/></g><g><path d="m396.728 218.023c-4.143 0-7.5-3.357-7.5-7.5v-179.008c0-4.143 3.357-7.5 7.5-7.5s7.5 3.357 7.5 7.5v179.008c0 4.142-3.358 7.5-7.5 7.5z" fill="#f37c7c"/></g></g></g></svg>