<?xml version="1.0" ?><svg viewBox="0 0 64 64" xmlns="http://www.w3.org/2000/svg"><title/><g id="Icons"><path d="M44,13V53H43A14,14,0,0,1,29,39V27c0-.11,0-.23.01-.34A14,14,0,0,1,43,13Z" style="fill:#ffd5c0"/><path d="M44,13v.04A13.97,13.97,0,0,0,31.03,26.28c-.6.12-1.19.24-1.76.34-.09.02-.18.03-.26.04A14,14,0,0,1,43,13Z" style="fill:#ffe0d2"/><path d="M38.98,51.64A13.916,13.916,0,0,0,44,52.96V53H43A14,14,0,0,1,29,39V28.67c.09-.02.18-.03.27-.05.56-.1,1.14-.21,1.73-.34V39A13.991,13.991,0,0,0,38.98,51.64Z" style="fill:#ffe0d2"/><path d="M59,27V39A13.986,13.986,0,0,1,45,53H44V13h1A14.008,14.008,0,0,1,58.93,25.59,13.052,13.052,0,0,1,59,27Z" style="fill:#f9cebb"/><path d="M53.32,17.54A13.97,13.97,0,0,0,44,13.04V13h1A14,14,0,0,1,58.92,25.58c-.07-.05-.12-.1-.19-.15a12.241,12.241,0,0,1-2.3-2.37.01.01,0,0,1-.01-.01,13.9,13.9,0,0,0-3.1-5.51Z" style="fill:#f2c8b6"/><path d="M59,27.64V39A14,14,0,0,1,45,53H44v-.04A13.985,13.985,0,0,0,57,39V27c0-.11,0-.23-.01-.34-.01-.32-.03-.65-.06-.96a12.535,12.535,0,0,0,1.8,1.73C58.82,27.5,58.9,27.57,59,27.64Z" style="fill:#f2c8b6"/><path d="M31.03,26.28c-.01.12-.02.25-.02.38-.01.11-.01.23-.01.34v1.28c-.59.13-1.17.24-1.73.34-.09.02-.18.03-.27.05V27c0-.11,0-.23.01-.34.08-.01.17-.02.26-.04C29.84,26.52,30.43,26.4,31.03,26.28Z" style="fill:#f4cfc1"/><path d="M44,22.29v2c-1.42.59-2.93,1.17-4.53,1.71A70.382,70.382,0,0,1,31,28.28V27c0-.11,0-.23.01-.34,0-.13.01-.26.02-.38A70.009,70.009,0,0,0,39.47,24C41.07,23.46,42.58,22.88,44,22.29Z" style="fill:#f2c8b6"/><path d="M59,27v.64c-.1-.07-.18-.14-.27-.21a12.535,12.535,0,0,1-1.8-1.73,13.538,13.538,0,0,0-.5-2.64,12.241,12.241,0,0,0,2.3,2.37c.07.05.12.1.19.15.01.08.02.17.03.26a1.948,1.948,0,0,1,.02.25c.01.19.02.38.02.57C59,26.77,59,26.89,59,27Z" style="fill:#ddb3a6"/><path d="M56.43,23.06a13.538,13.538,0,0,1,.5,2.64,8.243,8.243,0,0,1-1.6-2.7s-.08-.23-1.13-4A67.745,67.745,0,0,1,44,24.29v-2a67.214,67.214,0,0,0,9.32-4.75c.3-.18.6-.36.88-.54.36,1.29.61,2.17.78,2.76.32,1.14.35,1.24.35,1.24a7.635,7.635,0,0,0,1.09,2.05A.01.01,0,0,0,56.43,23.06Z" style="fill:#eabdad"/><path d="M58.93,25.59a1.948,1.948,0,0,1,.02.25c-.01-.09-.02-.18-.03-.26Z" style="fill:#eabdad"/><path d="M29,31v7H28a2.772,2.772,0,0,1-1-.18A2.968,2.968,0,0,1,25,35V32a1,1,0,0,1,1-1Z" style="fill:#ffe0d2"/><path d="M29,31v7a2.772,2.772,0,0,1-1-.18A2.968,2.968,0,0,1,26,35V32a1,1,0,0,1,1-1Z" style="fill:#ffd5c0"/><path d="M29,37a1.753,1.753,0,0,1-.638-.113A1.986,1.986,0,0,1,27,35V32h2Z" style="fill:#f9c9b4"/><path d="M59,31v7h1a2.772,2.772,0,0,0,1-.18A2.968,2.968,0,0,0,63,35V32a1,1,0,0,0-1-1Z" style="fill:#ffd5c0"/><path d="M59,31v7a2.772,2.772,0,0,0,1-.18A2.968,2.968,0,0,0,62,35V32a1,1,0,0,0-1-1Z" style="fill:#f9cebb"/><path d="M59,37a1.758,1.758,0,0,0,.639-.113A1.985,1.985,0,0,0,61,35V32H59Z" style="fill:#f4b89a"/><path d="M44,56v7c-.02,0-.39,0-.61-.02-.12-.01-.24-.02-.35-.04a.986.986,0,0,1-.24-.03,7.7,7.7,0,0,1-4.51-1.96c-.16-.14-.3-.29-.44-.43a7.982,7.982,0,0,1-.8-1.03,4.231,4.231,0,0,1-.24-.4c.13-.38.28-.84.43-1.35.24-.76.48-1.64.69-2.52a16.155,16.155,0,0,0,3.07.66A16.647,16.647,0,0,0,43,56Z" style="fill:#ffd5c0"/><path d="M44,53v3H43a16.647,16.647,0,0,1-2-.12,16.155,16.155,0,0,1-3.07-.66c.21-.9.41-1.89.58-2.97a12.924,12.924,0,0,0,2.49.6A13.168,13.168,0,0,0,43,53Z" style="fill:#ffd5c0"/><path d="M37.93,55.22c-.21.88-.45,1.76-.69,2.52-.15.51-.3.97-.43,1.35-.06-.11-.12-.22-.17-.32a5.45,5.45,0,0,1-.23-.51c-.09-.21-.16-.4-.22-.58-.02-.07-.04-.14-.06-.2-.06-.2-.1-.36-.13-.48.14-.78.29-1.55.43-2.33A15.816,15.816,0,0,0,37.93,55.22Z" style="fill:#ffe0d2"/><path d="M38.51,52.25c-.17,1.08-.37,2.07-.58,2.97a15.816,15.816,0,0,1-1.5-.55c.18-1.01.36-2.02.55-3.03a10.254,10.254,0,0,0,.96.41A4.3,4.3,0,0,0,38.51,52.25Z" style="fill:#f4cfc3"/><path d="M44,53v3H43a16.647,16.647,0,0,1-2-.12,16.155,16.155,0,0,1-3.07-.66c.21-.9.41-1.89.58-2.97a12.924,12.924,0,0,0,2.49.6A13.168,13.168,0,0,0,43,53Z" style="fill:#f2c8b6"/><path d="M44,56v7c.02,0,.39,0,.61-.02.12-.01.24-.02.35-.04a.986.986,0,0,0,.24-.03,7.7,7.7,0,0,0,4.51-1.96c.16-.14.3-.29.44-.43a7.982,7.982,0,0,0,.8-1.03,4.231,4.231,0,0,0,.24-.4c-.13-.38-.28-.84-.43-1.35-.24-.76-.48-1.64-.69-2.52a16.155,16.155,0,0,1-3.07.66A16.647,16.647,0,0,1,45,56Z" style="fill:#f9cebb"/><path d="M44,53v3h1a16.647,16.647,0,0,0,2-.12,16.155,16.155,0,0,0,3.07-.66c-.21-.9-.41-1.89-.58-2.97a12.924,12.924,0,0,1-2.49.6A13.168,13.168,0,0,1,45,53Z" style="fill:#ffd5c0"/><path d="M50.07,55.22c.21.88.45,1.76.69,2.52.15.51.3.97.43,1.35.06-.11.12-.22.17-.32a5.45,5.45,0,0,0,.23-.51c.09-.21.16-.4.22-.58.02-.07.04-.14.06-.2.06-.2.1-.36.13-.48-.14-.78-.29-1.55-.43-2.33A15.816,15.816,0,0,1,50.07,55.22Z" style="fill:#f2c8b6"/><path d="M44,56v7c-.02,0-.39,0-.61-.02-.12-.01-.24-.02-.35-.04a.986.986,0,0,1-.24-.03,7.7,7.7,0,0,1-4.51-1.96c-.16-.14-.3-.29-.44-.43a7.982,7.982,0,0,1-.8-1.03,4.231,4.231,0,0,1-.24-.4c.13-.38.28-.84.43-1.35.24-.76.48-1.64.69-2.52a16.155,16.155,0,0,0,3.07.66A16.647,16.647,0,0,0,43,56Z" style="fill:#ffd5c0"/><path d="M37.93,55.22c-.21.88-.45,1.76-.69,2.52-.15.51-.3.97-.43,1.35-.06-.11-.12-.22-.17-.32a5.45,5.45,0,0,1-.23-.51c-.09-.21-.16-.4-.22-.58-.02-.07-.04-.14-.06-.2-.06-.2-.1-.36-.13-.48.14-.78.29-1.55.43-2.33A15.816,15.816,0,0,0,37.93,55.22Z" style="fill:#ffe0d2"/><path d="M44,56v7c.02,0,.39,0,.61-.02.12-.01.24-.02.35-.04a.986.986,0,0,0,.24-.03,7.7,7.7,0,0,0,4.51-1.96c.16-.14.3-.29.44-.43a7.982,7.982,0,0,0,.8-1.03,4.231,4.231,0,0,0,.24-.4c-.13-.38-.28-.84-.43-1.35-.24-.76-.48-1.64-.69-2.52a16.155,16.155,0,0,1-3.07.66A16.647,16.647,0,0,1,45,56Z" style="fill:#f9cebb"/><path d="M50.07,55.22c.21.88.45,1.76.69,2.52.15.51.3.97.43,1.35.06-.11.12-.22.17-.32a5.45,5.45,0,0,0,.23-.51c.09-.21.16-.4.22-.58.02-.07.04-.14.06-.2.06-.2.1-.36.13-.48-.14-.78-.29-1.55-.43-2.33A15.816,15.816,0,0,1,50.07,55.22Z" style="fill:#f2c8b6"/><path d="M49.49,52.25c.17,1.08.37,2.07.58,2.97a15.816,15.816,0,0,0,1.5-.55c-.18-1.01-.36-2.02-.55-3.03a10.254,10.254,0,0,1-.96.41A4.3,4.3,0,0,1,49.49,52.25Z" style="fill:#e5b6a8"/><path d="M44,53v3h1a16.647,16.647,0,0,0,2-.12,16.155,16.155,0,0,0,3.07-.66c-.21-.9-.41-1.89-.58-2.97a12.924,12.924,0,0,1-2.49.6A13.168,13.168,0,0,1,45,53Z" style="fill:#eabdad"/><path d="M46.73,41.56,45.87,37H43.63l-.86,4.56A1.179,1.179,0,0,0,43.87,43h1.76A1.179,1.179,0,0,0,46.73,41.56Z" style="fill:#eabdad"/><path d="M44,37v6h-.88a1.179,1.179,0,0,1-1.1-1.44L42.88,37Z" style="fill:#f4b89a"/><path d="M44.88,43H44V37h1.12l.86,4.56A1.179,1.179,0,0,1,44.88,43Z" style="fill:#efb297"/><path d="M43.75,43h-.63a1.179,1.179,0,0,1-1.1-1.44L42.88,37h.63l-.86,4.56A1.179,1.179,0,0,0,43.75,43Z" style="fill:#f7c4ad"/><path d="M44.248,43h.63a1.179,1.179,0,0,0,1.1-1.44L45.118,37h-.63l.86,4.56A1.179,1.179,0,0,1,44.248,43Z" style="fill:#efae8e"/><path d="M44,42.5V43h-.25a1.085,1.085,0,0,1-.94-.55,1.059,1.059,0,0,0,.31.05Z" style="fill:#efb297"/><path d="M43.75,43h-.63a1.179,1.179,0,0,1-1.1-1.44,1.212,1.212,0,0,0,.79.89A1.085,1.085,0,0,0,43.75,43Z" style="fill:#f4b89a"/><path d="M44.88,43h-.63a1.085,1.085,0,0,0,.94-.55,1.212,1.212,0,0,0,.79-.89A1.179,1.179,0,0,1,44.88,43Z" style="fill:#eaa688"/><path d="M45.19,42.45a1.085,1.085,0,0,1-.94.55H44v-.5h.88A1.059,1.059,0,0,0,45.19,42.45Z" style="fill:#efae8e"/><path d="M31.03,26.28c-.01.12-.02.25-.02.38-.01.11-.01.23-.01.34v-.71A.037.037,0,0,1,31.03,26.28Z" style="fill:#f4cfc1"/><rect height="1" style="fill:#565556" width="2" x="57" y="30"/><path d="M59,27v.64c-.1-.07-.18-.14-.27-.21A12.588,12.588,0,0,1,57,25.78v-2a13.237,13.237,0,0,0,1.73,1.65c.07.05.12.1.19.15.01.08.02.17.03.26a1.948,1.948,0,0,1,.02.25c.01.19.02.38.02.57C59,26.77,59,26.89,59,27Z" style="fill:#484749"/><path d="M59,27.64v1.87H57V25.78a12.588,12.588,0,0,0,1.73,1.65C58.82,27.5,58.9,27.57,59,27.64Z" style="fill:#565556"/><rect height="1" style="fill:#666" width="2" x="29" y="30"/><path d="M29.27,28.62c.56-.1,1.14-.21,1.73-.34v1.23H29v-.84C29.09,28.65,29.18,28.64,29.27,28.62Z" style="fill:#666"/><path d="M31,26.29v1.99c-.59.13-1.17.24-1.73.34-.09.02-.18.03-.27.05V27c0-.11,0-.23.01-.34.08-.01.17-.02.26-.04C29.83,26.52,30.41,26.4,31,26.29Z" style="fill:#565556"/><path d="M44,9V22.29c-1.42.59-2.93,1.17-4.53,1.71a71.468,71.468,0,0,1-10.2,2.62c-.79.15-1.54.27-2.27.38V24C27,15.72,34.62,9,44,9Z" style="fill:#484749"/><path d="M44,9v.11C35.56,9.98,29,16.32,29,24v2.67c-.69.13-1.35.23-2,.33V24C27,15.72,34.62,9,44,9Z" style="fill:#565556"/><path d="M61,24v3a19.75,19.75,0,0,1-2-1.36c-.1-.07-.18-.14-.27-.21A9.887,9.887,0,0,1,55.33,21s-.08-.23-1.13-4A67.745,67.745,0,0,1,44,22.29V9a18.043,18.043,0,0,1,12.58,4.92c.36.36.71.73,1.04,1.11s.63.78.92,1.2a14.882,14.882,0,0,1,.78,1.27c.12.22.24.44.34.66a13.34,13.34,0,0,1,1.14,3.56A13.153,13.153,0,0,1,61,24Z" style="fill:#414043"/><path d="M61,24v3a19.75,19.75,0,0,1-2-1.36V24c0-7.68-6.56-14.02-15-14.89V9a18.043,18.043,0,0,1,12.58,4.92,13.541,13.541,0,0,1,1.04,1.11,11.917,11.917,0,0,1,.92,1.2,12.71,12.71,0,0,1,.78,1.27c.12.22.24.44.34.66a13.34,13.34,0,0,1,1.14,3.56A13.153,13.153,0,0,1,61,24Z" style="fill:#3d3d3d"/><path d="M44,63H15.85a11.694,11.694,0,0,1,2.93-2.79,12.229,12.229,0,0,1,4.84-1.87q4.695-.51,9.37-1.01L36,57c.03.12.07.28.13.48.02.06.04.13.06.2.06.18.13.37.22.58a.612.612,0,0,0,.05.12q.075.18.18.39c.05.1.11.21.17.32a4.231,4.231,0,0,0,.24.4,7.982,7.982,0,0,0,.8,1.03c.14.14.28.29.44.43a7.7,7.7,0,0,0,4.51,1.96.986.986,0,0,0,.24.03c.11.02.23.03.35.04C43.61,63,43.98,63,44,63Z" style="fill:#febd73"/><path d="M63,58.19V63H44c.02,0,.39,0,.61-.02.12-.01.24-.02.35-.04a.986.986,0,0,0,.24-.03,7.7,7.7,0,0,0,4.51-1.96c.16-.14.3-.29.44-.43a4.925,4.925,0,0,0,.43-.52,6.287,6.287,0,0,0,.61-.91,7.49,7.49,0,0,0,.35-.69c0-.01,0-.02.01-.02.01-.04.03-.08.04-.12.09-.21.16-.4.22-.58.02-.07.04-.14.06-.2.06-.2.1-.36.13-.48l3.01.33C57.67,57.61,60.34,57.9,63,58.19Z" style="fill:#fab06b"/><path d="M36.46,58.38c-1.03.11-2.06.22-3.09.34-1.92.2-3.83.41-5.75.62a12.229,12.229,0,0,0-4.84,1.87A11.12,11.12,0,0,0,20.69,63H15.85a11.694,11.694,0,0,1,2.93-2.79,12.229,12.229,0,0,1,4.84-1.87q4.695-.51,9.37-1.01L36,57c.03.12.07.28.13.48.02.06.04.13.06.2.06.18.13.37.22.58A.612.612,0,0,0,36.46,58.38Z" style="fill:#fedc96"/><path d="M36.46,58.38c-1.03.11-2.06.22-3.09.34l-.03-.09-.08-.29a4.509,4.509,0,0,1-.16-.59l-.11-.42L36,57c.03.12.07.28.13.48.02.06.04.13.06.2.06.18.13.37.22.58A.612.612,0,0,0,36.46,58.38Z" style="fill:#febd73"/><path d="M44,63H36.09c-.09-.08-.19-.18-.28-.27l-.18-.19a11.261,11.261,0,0,1-1.1-1.42c-.1-.15-.24-.39-.36-.61-.07-.13-.15-.27-.22-.4-.12-.25-.23-.5-.32-.73a6.389,6.389,0,0,1-.26-.66l-.03-.09-.08-.29a4.509,4.509,0,0,1-.16-.59l-.11-.42L36,57c.03.12.07.28.13.48.02.06.04.13.06.2.06.18.13.37.22.58a.612.612,0,0,0,.05.12q.075.18.18.39c.05.1.11.21.17.32a4.231,4.231,0,0,0,.24.4,7.982,7.982,0,0,0,.8,1.03c.14.14.28.29.44.43a7.7,7.7,0,0,0,4.51,1.96.986.986,0,0,0,.24.03c.11.02.23.03.35.04C43.61,63,43.98,63,44,63Z" style="fill:#fab06b"/><path d="M36.46,58.38c-1.03.11-2.06.22-3.09.34l-.03-.09-.08-.29a4.509,4.509,0,0,1-.16-.59l-.11-.42L36,57c.03.12.07.28.13.48.02.06.04.13.06.2.06.18.13.37.22.58A.612.612,0,0,0,36.46,58.38Z" style="fill:#f9ba85"/><path d="M55.01,57.33l-.11.42a4.509,4.509,0,0,1-.16.59l-.08.29-.03.09a6.389,6.389,0,0,1-.26.66,7.581,7.581,0,0,1-.33.73c-.06.13-.14.27-.22.42-.11.2-.25.44-.4.66a10.58,10.58,0,0,1-1.05,1.35l-.18.19c-.09.09-.18.18-.28.27H44c.02,0,.39,0,.61-.02.12-.01.24-.02.35-.04a.986.986,0,0,0,.24-.03,7.7,7.7,0,0,0,4.51-1.96c.16-.14.3-.29.44-.43a4.925,4.925,0,0,0,.43-.52,6.287,6.287,0,0,0,.61-.91,7.49,7.49,0,0,0,.35-.69c0-.01,0-.02.01-.02.01-.04.03-.08.04-.12.09-.21.16-.4.22-.58.02-.07.04-.14.06-.2.06-.2.1-.36.13-.48Z" style="fill:#fc8e52"/><path d="M63,58.19v1.87a12.143,12.143,0,0,0-2.62-.72c-1.92-.21-3.83-.42-5.75-.62-1.03-.12-2.05-.23-3.08-.34h-.01a.612.612,0,0,0,.05-.12c.09-.21.16-.4.22-.58.02-.07.04-.14.06-.2.06-.2.1-.36.13-.48l3.01.33C57.67,57.61,60.34,57.9,63,58.19Z" style="fill:#fc8e52"/><path d="M51.54,58.38c1.03.11,2.06.22,3.09.34l.03-.09.08-.29a4.509,4.509,0,0,0,.16-.59l.11-.42L52,57c-.03.12-.07.28-.13.48-.02.06-.04.13-.06.2-.06.18-.13.37-.22.58A.612.612,0,0,1,51.54,58.38Z" style="fill:#ed753a"/><path d="M35,35.5a.5.5,0,0,1-.108-.988,9.451,9.451,0,0,0,5.7-3.8.5.5,0,0,1,.819.574,10.448,10.448,0,0,1-6.3,4.2A.512.512,0,0,1,35,35.5Z" style="fill:#484749"/><path d="M53,35.5a.51.51,0,0,1-.108-.012,10.448,10.448,0,0,1-6.3-4.2.5.5,0,0,1,.819-.574,9.444,9.444,0,0,0,5.7,3.8A.5.5,0,0,1,53,35.5Z" style="fill:#414043"/><path d="M44,45.5v1a8,8,0,0,0-3.76.94.5.5,0,0,1-.48-.88A9.108,9.108,0,0,1,44,45.5Z" style="fill:#484749"/><path d="M48.44,47.24a.509.509,0,0,1-.44.26.533.533,0,0,1-.24-.06A7.971,7.971,0,0,0,44,46.5v-1a9.012,9.012,0,0,1,4.24,1.06A.5.5,0,0,1,48.44,47.24Z" style="fill:#414043"/><path d="M44,18.14V27a60.009,60.009,0,0,0-10.75.96A1.933,1.933,0,0,1,33,27V21a1.955,1.955,0,0,1,.59-1.41A2.206,2.206,0,0,1,35,19c1.55-.15,2.87-.28,4-.38C41.46,18.38,43.01,18.23,44,18.14Z" style="fill:#f1f9ff"/><path d="M55,21v6a2.038,2.038,0,0,1-.24.96A60.634,60.634,0,0,0,44,27V18.14c.99.09,2.54.24,5,.48,1.13.1,2.45.23,4,.38a2.206,2.206,0,0,1,1.41.59A1.955,1.955,0,0,1,55,21Z" style="fill:#e6f5ff"/><path d="M33.59,28.41a2.125,2.125,0,0,0,.55.4c-.38.05-.76.12-1.14.19a2.011,2.011,0,0,1-1.41-.59A1.955,1.955,0,0,1,31,27V26a1.955,1.955,0,0,0,.59,1.41A2.011,2.011,0,0,0,33,28a2.166,2.166,0,0,1,.25-.04A1.669,1.669,0,0,0,33.59,28.41Z" style="fill:#f1f9ff"/><path d="M51,18.6c.71.07,1.49.15,2.35.24-.86-.08-1.64-.16-2.35-.22-2.39-.23-3.92-.38-4.91-.47C47.14,18.23,48.7,18.38,51,18.6Z" style="fill:#f1f9ff"/><path d="M57,26v1a2.006,2.006,0,0,1-2,2c-.37-.07-.75-.13-1.14-.2a1.865,1.865,0,0,0,.55-.39,1.94,1.94,0,0,0,.35-.45c.08.01.16.03.24.04A2.006,2.006,0,0,0,57,26Z" style="fill:#f1f9ff"/><path d="M44,18v.14c-.99.09-2.54.24-5,.48-1.13.1-2.45.23-4,.38a2.206,2.206,0,0,0-1.41.59A1.955,1.955,0,0,0,33,21v6a1.933,1.933,0,0,0,.25.96A2.166,2.166,0,0,0,33,28a2.011,2.011,0,0,1-1.41-.59A1.955,1.955,0,0,1,31,26V21a1.955,1.955,0,0,1,.59-1.41A2.206,2.206,0,0,1,33,19c1.55-.15,2.87-.28,4-.38C43.22,18.01,43.59,18,44,18Z" style="fill:#fafdff"/><path d="M57,21v5a2.006,2.006,0,0,1-2,2c-.08-.01-.16-.03-.24-.04A2.038,2.038,0,0,0,55,27V21a1.955,1.955,0,0,0-.59-1.41A2.206,2.206,0,0,0,53,19c-1.55-.15-2.87-.28-4-.38-2.46-.24-4.01-.39-5-.48V18c.09,0,.17,0,.31.01a.487.487,0,0,1,.12.01c.07,0,.16.01.26.02.07.01.15.01.24.02.21.02.46.04.79.06a2.112,2.112,0,0,0,.26.02.375.375,0,0,0,.11.01c.99.09,2.52.24,4.91.47.71.06,1.49.14,2.35.22.52.05,1.07.1,1.65.16.03,0,.07.01.11.01.07.01.14.02.23.04s.18.04.28.07a.471.471,0,0,1,.15.06.076.076,0,0,1,.05.02,1.459,1.459,0,0,1,.3.16,1.541,1.541,0,0,1,.29.23A1.955,1.955,0,0,1,57,21Z" style="fill:#d9f1ff"/><path d="M53.86,28.8l.49.09c-.17-.03-.33-.06-.5-.08Z" style="fill:#f1f9ff"/><path d="M34.14,28.81c-.38.05-.76.12-1.14.19a2.011,2.011,0,0,1-1.41-.59A1.955,1.955,0,0,1,31,27V26a1.955,1.955,0,0,0,.59,1.41A2.011,2.011,0,0,0,33,28a2.166,2.166,0,0,1,.25-.04,1.669,1.669,0,0,0,.34.45A2.125,2.125,0,0,0,34.14,28.81Z" style="fill:#f1f9ff"/><path d="M57,26v1a1.979,1.979,0,0,1-.81,1.6,2.426,2.426,0,0,1-.2.14A2.056,2.056,0,0,1,55,29c-.21-.04-.43-.08-.65-.11l-.49-.09a1.865,1.865,0,0,0,.55-.39,1.94,1.94,0,0,0,.35-.45c.08.01.16.03.24.04A2.006,2.006,0,0,0,57,26Z" style="fill:#cce6f2"/><path d="M44,27v1a60,60,0,0,0-6.5.35c-.31.03-.64.07-.97.11s-.68.08-1.02.14c-.45.06-.91.12-1.37.21a2.125,2.125,0,0,1-.55-.4,1.669,1.669,0,0,1-.34-.45A60.009,60.009,0,0,1,44,27Z" style="fill:#e6f5ff"/><path d="M54.76,27.96a1.94,1.94,0,0,1-.35.45,1.865,1.865,0,0,1-.55.39h-.03c-.4-.07-.81-.13-1.23-.19s-.85-.12-1.3-.17c-.42-.05-.85-.1-1.29-.14-.52-.06-1.05-.1-1.59-.14-.44-.03-.89-.06-1.34-.08-.3-.02-.61-.03-.92-.04-.26-.01-.52-.02-.78-.02-.46-.01-.92-.02-1.38-.02V27A60.634,60.634,0,0,1,54.76,27.96Z" style="fill:#d9f1ff"/><path d="M44,18v7.23H39a1.862,1.862,0,0,1-2-1.68V18.62C43.22,18.01,43.59,18,44,18Z" style="fill:#b4f5f0"/><path d="M51,18.6v4.95a1.862,1.862,0,0,1-2,1.68H44V18S44.87,18,51,18.6Z" style="fill:#9eefe8"/><path d="M44,24v1.23H39a1.862,1.862,0,0,1-2-1.68V22.32A1.862,1.862,0,0,0,39,24Z" style="fill:#9eefe8"/><path d="M51,22.32v1.23a1.862,1.862,0,0,1-2,1.68H44V24h5A1.862,1.862,0,0,0,51,22.32Z" style="fill:#96eae0"/><path d="M33.6,16a.978.978,0,0,1-.4-.083,1,1,0,0,1-.521-1.314,17.036,17.036,0,0,0,1.15-3.778,4.757,4.757,0,0,0,.036-2.509,3.534,3.534,0,0,0-.663-1.15c-.156-.2-.31-.407-.454-.637-.972-1.559-1-3.542-.083-5.892a1,1,0,0,1,1.864.726c-.676,1.731-.7,3.113-.083,4.108a5.768,5.768,0,0,0,.343.478,5.484,5.484,0,0,1,.974,1.737,6.668,6.668,0,0,1,.035,3.49A19,19,0,0,1,34.518,15.4,1,1,0,0,1,33.6,16Z" style="fill:#fca19f"/><path d="M43.6,16a.978.978,0,0,1-.4-.083,1,1,0,0,1-.521-1.314,17.036,17.036,0,0,0,1.15-3.778,4.757,4.757,0,0,0,.036-2.509,3.534,3.534,0,0,0-.663-1.15c-.156-.2-.31-.407-.454-.637-.972-1.559-1-3.542-.083-5.892a1,1,0,0,1,1.864.726c-.676,1.731-.7,3.113-.083,4.108a5.768,5.768,0,0,0,.343.478,5.484,5.484,0,0,1,.974,1.737,6.668,6.668,0,0,1,.035,3.49A19,19,0,0,1,44.518,15.4,1,1,0,0,1,43.6,16Z" style="fill:#ff8680"/><path d="M53.6,16a.978.978,0,0,1-.4-.083,1,1,0,0,1-.521-1.314,17.036,17.036,0,0,0,1.15-3.778,4.757,4.757,0,0,0,.036-2.509,3.534,3.534,0,0,0-.663-1.15c-.156-.2-.31-.407-.454-.637-.972-1.559-1-3.542-.083-5.892a1,1,0,0,1,1.864.726c-.676,1.731-.7,3.113-.083,4.108a5.768,5.768,0,0,0,.343.478,5.484,5.484,0,0,1,.974,1.737,6.668,6.668,0,0,1,.035,3.49A19,19,0,0,1,54.518,15.4,1,1,0,0,1,53.6,16Z" style="fill:#e77973"/><path d="M15,13V43a.292.292,0,0,0,.02.09A5.995,5.995,0,0,0,16,55v4a10,10,0,0,1-5-18.66V8a5,5,0,0,1,5-5v9A1,1,0,0,0,15,13Z" style="fill:#eaeff5"/><path d="M26,49A10,10,0,0,1,16,59V55a5.995,5.995,0,0,0,.98-11.91A.292.292,0,0,0,17,43V13a1,1,0,0,0-1-1V3a4.985,4.985,0,0,1,5,5V40.34A9.993,9.993,0,0,1,26,49Z" style="fill:#ccdee6"/><path d="M16,12V55a5.995,5.995,0,0,1-.98-11.91A.292.292,0,0,1,15,43V13A1,1,0,0,1,16,12Z" style="fill:#ff8680"/><path d="M22,49a6,6,0,0,1-6,6V12a1,1,0,0,1,1,1V43a.292.292,0,0,1-.02.09A5.99,5.99,0,0,1,22,49Z" style="fill:#e77973"/><path d="M13.75,39a.755.755,0,0,1-.75.75H11v-1.5h2A.755.755,0,0,1,13.75,39Z" style="fill:#a2adb3"/><path d="M13.75,35a.755.755,0,0,1-.75.75H11v-1.5h2A.755.755,0,0,1,13.75,35Z" style="fill:#a2adb3"/><path d="M13.75,31a.755.755,0,0,1-.75.75H11v-1.5h2A.755.755,0,0,1,13.75,31Z" style="fill:#a2adb3"/><path d="M13.75,27a.755.755,0,0,1-.75.75H11v-1.5h2A.755.755,0,0,1,13.75,27Z" style="fill:#a2adb3"/><path d="M13.75,23a.755.755,0,0,1-.75.75H11v-1.5h2A.755.755,0,0,1,13.75,23Z" style="fill:#a2adb3"/><path d="M13.75,19a.755.755,0,0,1-.75.75H11v-1.5h2A.755.755,0,0,1,13.75,19Z" style="fill:#a2adb3"/><path d="M13.75,15a.755.755,0,0,1-.75.75H11v-1.5h2A.755.755,0,0,1,13.75,15Z" style="fill:#a2adb3"/><path d="M13.75,11a.755.755,0,0,1-.75.75H11v-1.5h2A.755.755,0,0,1,13.75,11Z" style="fill:#a2adb3"/><path d="M3,24a1,1,0,0,0,.782-.375l4-5a1,1,0,0,0-.141-1.393L2.67,13.089,7.555,9.831a1,1,0,0,0,.416-1.074l-1.526-6.1L9.63,3.928a1,1,0,1,0,.742-1.857l-5-2A1,1,0,0,0,4.031,1.242L5.86,8.558.446,12.167a1,1,0,0,0-.086,1.6L5.607,18.14,2.22,22.375A1,1,0,0,0,3,24Z" style="fill:#ff8680"/></g></svg>