<svg id="Layer_1" enable-background="new 0 0 256 256" height="512" viewBox="0 0 256 256" width="512" xmlns="http://www.w3.org/2000/svg"><g><g><g><g><g><path d="m152.296 178.607c0 33.031-26.777 59.808-59.808 59.808-33.031 0-59.808-26.777-59.808-59.808v-101.214c0-33.031 26.777-59.808 59.808-59.808 33.031 0 59.808 26.777 59.808 59.808z" fill="#e0ebfc"/></g></g></g></g><g><g><g><g><path d="m92.488 35.362c-24.392 0-44.166 19.774-44.166 44.166s19.774 44.166 44.166 44.166c26.256 0 47.54 21.284 47.54 47.54v21.175c0 25.409-20.598 46.006-46.006 46.006h-1.534c-33.031 0-59.808-26.777-59.808-59.808v-101.214c0-33.031 26.777-59.808 59.808-59.808z" fill="#a4c9ff"/></g></g></g></g><g><g><g><g><path d="m92.488 240.415c-34.082 0-61.809-27.727-61.809-61.808v-101.214c0-34.081 27.727-61.808 61.808-61.808 34.082 0 61.809 27.727 61.809 61.808v101.214c0 34.081-27.727 61.808-61.808 61.808zm0-220.83c-31.876 0-57.809 25.933-57.809 57.808v101.214c0 31.875 25.933 57.808 57.808 57.808 31.876 0 57.809-25.933 57.809-57.808v-101.214c0-31.875-25.933-57.808-57.808-57.808z" fill="#3762cc"/></g></g></g></g><g><g><g><g><path d="m94.021 240.415h-1.533c-34.082 0-61.809-27.727-61.809-61.808v-101.214c0-34.081 27.727-61.808 61.808-61.808 1.104 0 2 .896 2 2v17.777c0 .53-.21 1.039-.586 1.414-.375.375-.884.586-1.414.586-23.25 0-42.167 18.916-42.167 42.166s18.916 42.166 42.167 42.166c27.316 0 49.54 22.224 49.54 49.54v21.174c0 26.471-21.535 48.007-48.006 48.007zm-3.533-220.796c-30.954 1.058-55.809 26.568-55.809 57.774v101.214c0 31.875 25.933 57.808 57.808 57.808h1.534c24.265 0 44.006-19.741 44.006-44.006v-21.174c0-25.111-20.429-45.54-45.54-45.54-25.457 0-46.167-20.71-46.167-46.166 0-24.786 19.634-45.073 44.167-46.123v-13.787z" fill="#3762cc"/></g></g></g></g><g><g><g><g><path d="m182.616 213.462h23.26v25.234h-23.26z" fill="#a4c9ff"/></g></g></g></g><g><g><g><g><path d="m215.506 238.696h-42.52c-1.105 0-2 .895-2 2v5.304c0 1.105.895 2 2 2h42.52c1.105 0 2-.895 2-2v-5.304c0-1.105-.896-2-2-2z" fill="#4671c6"/></g></g></g></g><g><g><g><g><path d="m190.812 10.414v103.086h6.867v-98.633l-5.16-5.16c-.629-.63-1.707-.184-1.707.707z" fill="#4671c6"/></g></g></g></g><g><g><g><g><path d="m214.017 208.035h-39.542v-131.233c0-3.314 2.686-6 6-6h27.542c3.314 0 6 2.686 6 6z" fill="#e0ebfc"/></g></g></g></g><g><g><g><g><path d="m135.467 123.721h117.557v28h-117.557z" fill="#a4c9ff" transform="matrix(0 1 -1 0 331.967 -56.524)"/></g></g></g></g><g><g><g><g><path d="m147.89 81.22c0-5.563-3.835-10.218-9.002-11.5-4.519-21.483-23.574-37.613-46.4-37.613-22.838 0-41.901 16.146-46.408 37.646-5.103 1.326-8.876 5.95-8.876 11.468 0 5.841 4.225 10.684 9.784 11.669 5.771 19.683 23.951 34.062 45.5 34.062 21.543 0 39.718-14.37 45.495-34.043 5.618-.936 9.907-5.805 9.907-11.689z" fill="#f9cfcf"/></g></g></g></g><g><g><g><g><path d="m205.876 240.696h-23.26c-1.104 0-2-.896-2-2v-25.234c0-1.104.896-2 2-2h23.26c1.104 0 2 .896 2 2v25.234c0 1.105-.896 2-2 2zm-21.26-4h19.26v-21.234h-19.26z" fill="#3762cc"/></g></g></g></g><g><g><g><g><path d="m215.506 250h-42.52c-2.206 0-4-1.794-4-4v-5.304c0-2.206 1.794-4 4-4h42.52c2.206 0 4 1.794 4 4v5.304c0 2.206-1.795 4-4 4zm-42.52-9.304v5.304h42.52v-5.304z" fill="#3762cc"/></g></g></g></g><g><g><g><g><path d="m214.017 210.035h-39.542c-1.104 0-2-.896-2-2v-131.233c0-4.411 3.589-8 8-8h27.542c4.411 0 8 3.589 8 8v131.233c0 1.104-.896 2-2 2zm-37.542-4h35.542v-129.233c0-2.206-1.794-4-4-4h-27.542c-2.206 0-4 1.794-4 4z" fill="#3762cc"/></g></g></g></g><g><g><g><g><path d="m220.321 204.158h-52.15c-1.657 0-3 1.343-3 3v3.304c0 1.657 1.343 3 3 3h52.15c1.657 0 3-1.343 3-3v-3.304c0-1.657-1.343-3-3-3z" fill="#4671c6"/></g></g></g></g><g><g><g><g><path d="m220.321 215.462h-52.15c-2.757 0-5-2.243-5-5v-3.304c0-2.757 2.243-5 5-5h52.15c2.757 0 5 2.243 5 5v3.304c0 2.757-2.243 5-5 5zm-52.15-9.304c-.551 0-1 .449-1 1v3.304c0 .551.449 1 1 1h52.15c.551 0 1-.449 1-1v-3.304c0-.551-.449-1-1-1z" fill="#3762cc"/></g></g></g></g><g><g><g><g><path d="m92.488 128.95c-21.396 0-40.582-14.072-47.072-34.366-5.987-1.622-10.212-7.057-10.212-13.365 0-5.884 3.715-11.078 9.176-13.034 5.202-22.136 25.245-38.079 48.108-38.079 22.842 0 42.878 15.922 48.097 38.032 5.537 1.918 9.305 7.129 9.305 13.081 0 6.374-4.278 11.821-10.34 13.397-6.5 20.277-25.68 34.334-47.062 34.334zm0-94.844c-21.377 0-40.071 15.164-44.451 36.056-.156.744-.719 1.334-1.455 1.525-4.345 1.129-7.379 5.048-7.379 9.532 0 4.786 3.42 8.865 8.132 9.7.749.132 1.357.677 1.571 1.407 5.631 19.208 23.553 32.624 43.581 32.624 20.02 0 37.939-13.408 43.576-32.606.216-.736.834-1.284 1.591-1.41 4.771-.793 8.235-4.878 8.235-9.714 0-4.535-3.077-8.466-7.483-9.559-.745-.185-1.318-.779-1.476-1.529-4.39-20.875-23.081-36.026-44.442-36.026z" fill="#3762cc"/></g></g></g></g><g><g><g><g><path d="m99.8 47.34h-14.625c-6.125 0-11.09-4.965-11.09-11.09v-.001c0-6.125 4.965-11.09 11.09-11.09h14.625c6.125 0 11.09 4.965 11.09 11.09v.001c0 6.125-4.965 11.09-11.09 11.09z" fill="#4671c6"/></g></g></g></g><g><g><g><g><path d="m99.8 49.34h-14.625c-7.218 0-13.09-5.872-13.09-13.09 0-7.219 5.872-13.091 13.09-13.091h14.625c7.218 0 13.09 5.872 13.09 13.09s-5.872 13.091-13.09 13.091zm-14.625-22.181c-5.012 0-9.09 4.078-9.09 9.09 0 5.013 4.078 9.092 9.09 9.092h14.625c5.012 0 9.09-4.078 9.09-9.09 0-5.013-4.078-9.091-9.09-9.091h-14.625z" fill="#3762cc"/></g></g></g></g><g><g><g><g><path d="m99.619 94.875c1.165 0 2.082 1.078 1.803 2.209-.989 4.015-4.614 6.992-8.934 6.992s-7.945-2.977-8.934-6.992c-.279-1.131.638-2.209 1.803-2.209z" fill="#f9a7a7"/></g></g></g></g><g><g><g><g><path d="m124.922 100.795h-7.821c-2.592 0-4.693-2.101-4.693-4.693 0-2.592 2.101-4.693 4.693-4.693h7.821c2.592 0 4.693 2.101 4.693 4.693 0 2.592-2.101 4.693-4.693 4.693z" fill="#f9a7a7"/></g></g></g></g><g><g><g><g><path d="m67.874 100.795h-7.821c-2.592 0-4.693-2.101-4.693-4.693 0-2.592 2.101-4.693 4.693-4.693h7.821c2.592 0 4.693 2.101 4.693 4.693 0 2.592-2.101 4.693-4.693 4.693z" fill="#f9a7a7"/></g></g></g></g><g><g><g><g><path d="m74.085 85.049c-3.049 0-5.521-2.472-5.521-5.521v-2.469c0-3.049 2.472-5.521 5.521-5.521 3.049 0 5.521 2.472 5.521 5.521v2.469c0 3.049-2.472 5.521-5.521 5.521z" fill="#3762cc"/></g></g></g></g><g><g><g><g><path d="m110.89 85.049c-3.049 0-5.521-2.472-5.521-5.521v-2.469c0-3.049 2.472-5.521 5.521-5.521 3.049 0 5.521 2.472 5.521 5.521v2.469c0 3.049-2.472 5.521-5.521 5.521z" fill="#3762cc"/></g></g></g></g><g><g><g><g><path d="m187.333 93.41h-12.858c-1.104 0-2-.896-2-2s.896-2 2-2h12.858c1.104 0 2 .896 2 2s-.895 2-2 2z" fill="#3762cc"/></g></g></g></g><g><g><g><g><path d="m187.333 113.41h-12.858c-1.104 0-2-.896-2-2s.896-2 2-2h12.858c1.104 0 2 .896 2 2s-.895 2-2 2z" fill="#3762cc"/></g></g></g></g><g><g><g><g><path d="m187.333 133.41h-12.858c-1.104 0-2-.896-2-2s.896-2 2-2h12.858c1.104 0 2 .896 2 2s-.895 2-2 2z" fill="#3762cc"/></g></g></g></g><g><g><g><g><path d="m187.333 153.41h-12.858c-1.104 0-2-.896-2-2s.896-2 2-2h12.858c1.104 0 2 .896 2 2s-.895 2-2 2z" fill="#3762cc"/></g></g></g></g><g><g><g><g><path d="m187.333 173.41h-12.858c-1.104 0-2-.896-2-2s.896-2 2-2h12.858c1.104 0 2 .896 2 2s-.895 2-2 2z" fill="#3762cc"/></g></g></g></g><g><g><g><g><path d="m187.333 193.41h-12.858c-1.104 0-2-.896-2-2s.896-2 2-2h12.858c1.104 0 2 .896 2 2s-.895 2-2 2z" fill="#3762cc"/></g></g></g></g></g></svg>