<svg id="Capa_1" enable-background="new 0 0 493.8 493.8" height="512" viewBox="0 0 493.8 493.8" width="512" xmlns="http://www.w3.org/2000/svg"><g><path d="m391.438 207.084-2.491-18.844c-1.3-9.84-2.19-19.73-2.65-29.64l-4.41-93.85c-.59-12.56-10.95-22.44-23.52-22.44h-1.09c-13 0-23.54 10.54-23.54 23.55v-17.96c0-6.5-2.64-12.39-6.9-16.65s-10.15-6.9-16.65-6.9c-13.01 0-23.55 10.55-23.55 23.55v-24.35c0-6.51-2.63-12.39-6.9-16.65-4.359-4.359-10.425-7.022-17.105-6.896-12.917.244-23.095 11.164-23.095 24.083v23.233c.01.13.01.27.01.4 0 19.58-.01-.4-.01-.4-.21-12.83-10.68-23.15-23.66-23.15h-.59c-12.63 0-22.86 10.23-22.86 22.85l.008 160.846 10.765 14.283-10.763 17.722v9.599c0 4.4-5.33 6.59-8.42 3.46l-45.932-46.436-20.59.736-8.417 12.448 28.338 68.461 73.917 78.001 38.595 39.842v73.512l9.087 8.979 9.828 5.328h103.703c5.23 0 9.47-4.24 9.47-9.47v-21.217l-24.347-113.737c9.872-35.191 33.769-142.293 33.769-142.293z" fill="#ffdfcf"/><g><g><path d="m213.036 252.93c3.09 3.13 8.42.94 8.42-3.46l-.01-202.45c0-7.323 3.436-13.854 8.795-18.035-3.98-3.029-8.945-4.815-14.363-4.815h-.59c-12.63 0-22.86 10.23-22.86 22.85l.009 160.287z" fill="#ffcebf"/></g><path d="m270.248 484.33v-72.97c0-4.54-1.83-8.88-5.09-12.04l-74.53-72.21c-2.27-2.2-4.21-4.72-5.77-7.47l-48.64-86.37c-2.14-3.8-3.14-7.9-3.14-11.94 0-5.35 1.77-10.581 5.008-14.836l-2.328-2.354c-7.05-7.13-17.74-9.22-26.96-5.27-9.33 4-14.79 13.05-14.79 22.46 0 4.04 1 8.14 3.14 11.94l48.64 86.37c1.56 2.75 3.5 5.27 5.77 7.47l63.321 61.35 16.299-1.469 13.919 13.009 1.803 53.662-15.722 10.098v20.57c0 5.23 4.24 9.47 9.47 9.47h39.07c-5.23 0-9.47-4.24-9.47-9.47z" fill="#ffcebf"/><g id="XMLID_269_"><g><g><path d="m397.458 252.63c4.8 36.23 2.18 73.05-7.69 108.24l-6.83 24.32c-.61 2.17-.92 4.41-.92 6.67v71.9h-150.84v-52.4c0-4.54-1.83-8.88-5.09-12.04l-11.21-10.86c43.73-28.02 47.68-90.45 7.82-123.75l-30.26-25.28v-32.2l20.31 6.09c58.63 17.57 121.41 15.44 178.71-6.09z" fill="#f9f7f8"/></g></g></g><path d="m262.283 396.534c-6.203-6.01-6.537-15.738-.975-22.345 26.435-31.4 24.035-80.32-9.641-108.453l-20.984-17.531c-5.878-4.911-9.276-12.176-9.276-19.836v-12.62c-2.895-.767-5.783-1.567-8.66-2.429l-20.31-6.09v32.2l30.26 25.28c32.552 27.195 35.862 73.805 12.17 105.248l.009.023c-5.317 7.053-11.987 13.345-19.999 18.479l11.21 10.86c3.26 3.16 5.09 7.5 5.09 12.04v52.4h39.07v-52.4c0-4.544-1.842-8.893-5.105-12.055z" fill="#efedef"/><path d="m251.516 428.078c4.142 0 7.5-3.358 7.5-7.5s-3.358-7.5-7.5-7.5h-20.339v15z" fill="#e5e1e5"/><g><g><path d="m292.637 428.078h-13.334c-4.142 0-7.5-3.358-7.5-7.5s3.358-7.5 7.5-7.5h13.334c4.142 0 7.5 3.358 7.5 7.5s-3.357 7.5-7.5 7.5z" fill="#efedef"/></g></g><g><g><path d="m333.759 428.078h-13.334c-4.143 0-7.5-3.358-7.5-7.5s3.357-7.5 7.5-7.5h13.334c4.143 0 7.5 3.358 7.5 7.5s-3.358 7.5-7.5 7.5z" fill="#efedef"/></g></g><path d="m382.018 413.078h-20.472c-4.143 0-7.5 3.358-7.5 7.5s3.357 7.5 7.5 7.5h20.472z" fill="#efedef"/></g><g fill="#ffcebf"><path d="m239.54 180.249c16.026 0 29.017-12.992 29.016-29.018l-.006-129.743c0-6.914 3.06-13.13 7.912-17.321-3.892-2.694-8.627-4.241-13.733-4.165-12.954.194-23.191 11.125-23.191 24.081v23.237c.01.13.01.27.01.4 0 19.58-.01-.4-.01-.4 0-.035-.004-.07-.004-.105z"/><path d="m286.692 180.249c16.026 0 29.017-12.992 29.016-29.018l-.005-104.226c0-7.255 3.375-13.728 8.649-17.914-3.942-2.973-8.848-4.741-14.164-4.741-12.379 0-22.515 9.553-23.469 21.679-.009.268-.024.708-.033.976z"/><path d="m333.844 180.249c16.026 0 29.017-12.992 29.016-29.018l-.004-87.144c0-7.209 3.329-13.654 8.545-17.843-3.74-2.492-8.221-3.935-13.034-3.935h-1.09c-12.136 0-22.126 9.186-23.401 20.992-.011.216-.028.569-.039.785z"/></g></g></svg>