<?xml version="1.0" encoding="iso-8859-1"?>
<!-- Generator: Adobe Illustrator 19.0.0, SVG Export Plug-In . SVG Version: 6.00 Build 0)  -->
<svg version="1.1" id="Layer_1" xmlns="http://www.w3.org/2000/svg" xmlns:xlink="http://www.w3.org/1999/xlink" x="0px" y="0px"
	 viewBox="0 0 496 496" style="enable-background:new 0 0 496 496;" xml:space="preserve">
<g>
	<g>
		<g>
			<path d="M176,40H16V0H0v40v24v376v16v40h16v-40h160v40h16v-40v-16V64V40V0h-16V40z M176,64v376H16V64v-8h160V64z"/>
			<path d="M56,144h80c13.232,0,24-10.768,24-24V96c0-13.232-10.768-24-24-24H56c-13.232,0-24,10.768-24,24v24
				C32,133.232,42.768,144,56,144z M48,96c0-4.416,3.584-8,8-8h80c4.416,0,8,3.584,8,8v24c0,4.416-3.584,8-8,8H56
				c-4.416,0-8-3.584-8-8V96z"/>
			<polygon points="104,216 88,216 88,240 64,240 64,256 88,256 88,280 104,280 104,256 128,256 128,240 104,240 			"/>
			<path d="M424,144h-10.84C429.504,130.792,440,110.608,440,88V64c0-35.288-28.712-64-64-64h-16c-35.288,0-64,28.712-64,64v24
				c0,22.608,10.496,42.792,26.84,56H312c-39.704,0-72,32.296-72,72v80c0,26.472,21.528,48,48,48v81.584v48.392V496h160V344
				c26.472,0,48-21.528,48-48v-80C496,176.296,463.704,144,424,144z M312,64c0-26.472,21.528-48,48-48h16c26.472,0,48,21.528,48,48
				v13.024c-1.96-1.648-3.464-3.848-4.12-6.464l-0.24-0.976C416.472,56.872,405.104,48,392,48h-48
				c-13.104,0-24.472,8.872-27.648,21.608l-0.224,0.928c-0.664,2.632-2.168,4.832-4.128,6.488V64z M312.432,94.664
				c9.32-2.888,16.744-10.384,19.216-20.272l0.224-0.928C333.272,67.888,338.256,64,344,64h48c5.744,0,10.728,3.888,12.12,9.44
				l0.24,0.976c2.464,9.872,9.888,17.36,19.208,20.248C420.256,122.408,396.616,144,368,144
				C339.384,144,315.744,122.4,312.432,94.664z M390.528,160c-3.312,9.288-12.112,16-22.528,16s-19.216-6.712-22.528-16H390.528z
				 M288,328c-17.648,0-32-14.352-32-32v-16h32V328z M288,264h-32v-16h32V264z M360,480h-56v-9.576l56-12.448V480z M360,441.576
				l-56,12.44v-15.608l56-12.44V441.576z M360,409.584l-56,12.448V400h56V409.584z M432,480h-56v-80h56V480z M432,384h-56v-24h-16
				v24h-56v-56h128V384z M480,296c0,17.648-14.352,32-32,32v-48h32V296z M480,264h-32v-16h32V264z M480,232h-32v-32h-16v112H304V200
				h-16v32h-32v-16c0-30.872,25.128-56,56-56h16.808c3.72,18.232,19.872,32,39.192,32c19.32,0,35.472-13.768,39.192-32H424
				c30.872,0,56,25.128,56,56V232z"/>
			<polygon points="376,224 360,224 360,240 344,240 344,256 360,256 360,272 376,272 376,256 392,256 392,240 376,240 			"/>
			<rect x="222.097" y="360" transform="matrix(0.8944 0.4472 -0.4472 0.8944 189.9104 -68.4733)" width="35.775" height="16"/>
			<rect x="216" y="408" width="40" height="16"/>
			
				<rect x="232.01" y="446.084" transform="matrix(-0.4472 -0.8944 0.8944 -0.4472 -67.6433 886.1365)" width="16" height="35.775"/>
		</g>
	</g>
</g>
<g>
</g>
<g>
</g>
<g>
</g>
<g>
</g>
<g>
</g>
<g>
</g>
<g>
</g>
<g>
</g>
<g>
</g>
<g>
</g>
<g>
</g>
<g>
</g>
<g>
</g>
<g>
</g>
<g>
</g>
</svg>
