<svg height="472pt" viewBox="0 -52 472.01342 472" width="472pt" xmlns="http://www.w3.org/2000/svg"><path d="m112.011719 256.007812v-255.9999995l-112.0000002.2617185v312c-.5624998 21.503907 16.3945312 39.402344 37.8984372 40h250.101563v-96.261719zm0 0" fill="#f9d5c0"/><path d="m288.011719 240.007812h96v128h-96zm0 0" fill="#aabece"/><path d="m384.011719 240.007812h64c8.839843 0 16 7.164063 16 16v96c0 8.835938-7.160157 16-16 16h-64zm0 0" fill="#f6bf9b"/><path d="m304.011719 208.007812h64c8.839843 0 16 7.164063 16 16v16h-96v-16c0-8.835937 7.164062-16 16-16zm0 0" fill="#f6bf9b"/><path d="m168.15625 352.269531-24.144531-96.269531h71.859375l24.140625 96.269531zm0 0" fill="#aabece"/><g fill="#7d8d9c"><path d="m320.011719 240.007812h32v128h-32zm0 0"/><path d="m208.011719 256.007812h16c17.675781 0 32-14.328124 32-32h-16c-17.671875 0-32 14.324219-32 32zm0 0"/><path d="m144.011719 224.007812h16c17.675781 0 32 14.324219 32 32h-16c-17.671875 0-32-14.328124-32-32zm0 0"/></g><path d="m464.011719 280.132812h-40c-4.417969 0-8-3.578124-8-8 0-4.417968 3.582031-8 8-8h40c4.421875 0 8 3.582032 8 8 0 4.421876-3.578125 8-8 8zm0 0" fill="#ed9564"/><path d="m464.011719 344.132812h-40c-4.417969 0-8-3.578124-8-8 0-4.417968 3.582031-8 8-8h40c4.421875 0 8 3.582032 8 8 0 4.421876-3.578125 8-8 8zm0 0" fill="#ed9564"/><path d="m464.011719 312.132812h-40c-4.417969 0-8-3.578124-8-8 0-4.417968 3.582031-8 8-8h40c4.421875 0 8 3.582032 8 8 0 4.421876-3.578125 8-8 8zm0 0" fill="#ed9564"/></svg>