<svg id="Layer_1" enable-background="new 0 0 512 512" height="512" viewBox="0 0 512 512" width="512" xmlns="http://www.w3.org/2000/svg"><g><path d="m357.403 79.356c-38.158 16.99-164.394 17.103-202.805 0-66.702-29.699-154.598-19.572-154.598 73.759 0 76.547 62.457 113.027 62.457 113.027l32.262-30.798s-42.4-42.471-42.4-75.535c0-64.403 82.859-42.846 90.125 23.826 7.265 66.672 32.765 92.175 55.982 137.493 20.281 39.586 27.004 106.439 28.38 122.718.175 2.069 1.908 3.654 3.985 3.654h50.419c2.077 0 3.81-1.585 3.985-3.654 1.376-16.279 8.099-83.133 28.38-122.718 23.218-45.318 48.717-70.821 55.982-137.493s90.125-88.229 90.125-23.826c0 33.063-42.4 75.535-42.4 75.535l32.262 30.798s62.457-36.479 62.457-113.027c-.001-93.331-87.897-103.458-154.598-73.759z" fill="#fdba91"/><g fill="#fc997d"><path d="m433.883 121.604c-1.225-.56-2.79-.74-4.753-.466-.003 0-.006.001-.008.001 1.619.044 3.207.204 4.761.465z"/><path d="m83.868 121.133c-33.74-5.831-63.248 2.467-62.455 38.676.724 33.055 42.4 75.534 42.4 75.534l-18.494 17.656c9.721 8.81 17.138 13.143 17.138 13.143l32.262-30.798s-42.4-42.471-42.4-75.534c0-26.76 14.306-38.667 31.549-38.677z"/><path d="m448.365 66.963c19.736 23.51 32.729 53.291 32.729 86.152 0 50.17-26.829 83.127-45.319 99.884l13.767 13.143s62.457-36.479 62.457-113.027c.001-52.313-27.616-78.48-63.634-86.152z"/><path d="m422.026 121.605c-22.176.986-83.009-.286-89.394 58.307-7.265 66.672-28.131 80.747-51.349 126.064-23.218 45.318-27.28 141.523-27.28 141.523h27.207c2.077 0 3.81-1.585 3.985-3.654 1.376-16.279 8.099-83.133 28.38-122.718 23.217-45.318 48.717-70.821 55.982-137.493 3.896-35.753 29.53-58.523 52.469-62.029z"/></g><path d="m256 416.613c-.607 0-1.119-.442-1.198-1.044-3.951-30.008-12.33-76.239-28.867-108.519-6.15-12.003-12.272-22.408-18.192-32.471-16.663-28.321-29.824-50.69-34.575-94.289-2.719-24.955-13.714-47.923-30.96-64.673-4.019-3.903-8.309-7.403-12.795-10.468-1.176-.803-.264-2.608 1.081-2.14 3.889 1.352 7.742 2.875 11.526 4.559 31.337 13.953 90.073 15.46 113.872 15.459 23.865 0 82.756-1.507 114.089-15.459 3.785-1.685 7.64-3.208 11.529-4.561 1.346-.468 2.258 1.337 1.081 2.14-4.487 3.065-8.779 6.566-12.799 10.471-17.245 16.751-28.24 39.718-30.96 64.671-4.75 43.599-17.912 65.968-34.574 94.288-5.921 10.063-12.043 20.469-18.193 32.472-16.537 32.28-24.917 78.51-28.867 108.519-.079.603-.591 1.045-1.198 1.045z" fill="#fa6f5f"/><g><ellipse cx="83.868" cy="252.494" fill="#ffe4c4" rx="43.86" ry="68.326" transform="matrix(.707 -.708 .708 .707 -154.061 133.427)"/><path d="m114.966 221.565c-22.231-22.262-50.621-31.369-69.404-23.888 12.99 3.865 26.623 11.996 38.498 23.888 26.664 26.701 34.356 62.195 17.182 79.276-2.856 2.84-6.228 4.977-9.974 6.469 16.177 4.813 31.353 3.005 40.879-6.469 17.176-17.081 9.483-52.574-17.181-79.276z" fill="#fdd9b1"/><ellipse cx="429.13" cy="252.494" fill="#ffe4c4" rx="68.326" ry="43.86" transform="matrix(.708 -.707 .707 .708 -52.94 377.051)"/><path d="m477.41 204.147c-9.526-9.474-24.702-11.283-40.879-6.469 3.746 1.492 7.118 3.629 9.974 6.469 17.175 17.081 9.482 52.575-17.182 79.276-11.875 11.892-25.509 20.022-38.498 23.887 18.783 7.481 47.173-1.626 69.404-23.887 26.663-26.701 34.355-62.194 17.181-79.276z" fill="#fdd9b1"/></g></g></svg>